<?xml version="1.0" standalone="no"?>
<!DOCTYPE svg PUBLIC "-//W3C//DTD SVG 20010904//EN"
 "http://www.w3.org/TR/2001/REC-SVG-20010904/DTD/svg10.dtd">
<svg version="1.0" xmlns="http://www.w3.org/2000/svg"
 width="512.000000pt" height="512.000000pt" viewBox="0 0 512.000000 512.000000"
 preserveAspectRatio="xMidYMid meet">
<metadata>
Created by potrace 1.11, written by Peter Selinger 2001-2013
</metadata>
<g transform="translate(0.000000,512.000000) scale(0.100000,-0.100000)"
fill="#000000" stroke="none">
<path d="M350 4145 l0 -615 615 0 615 0 0 615 0 615 -615 0 -615 0 0 -615z
m128 552 c9 -19 11 -36 4 -55 -7 -22 -15 -27 -42 -27 -30 0 -35 4 -43 32 -20
69 51 113 81 50z m160 21 c14 -18 17 -48 9 -81 -7 -24 -12 -28 -40 -25 -26 2
-33 9 -41 35 -15 56 40 110 72 71z m181 -20 c22 -39 5 -82 -33 -86 -34 -4 -46
10 -46 59 0 62 50 80 79 27z m165 16 c19 -18 21 -75 4 -92 -7 -7 -21 -12 -33
-12 -29 0 -45 19 -45 53 0 60 39 87 74 51z m174 4 c7 -7 12 -28 12 -48 0 -41
-14 -60 -47 -60 -40 0 -56 57 -27 98 17 24 43 29 62 10z m162 -38 c0 -27 5
-50 10 -50 6 0 10 -4 10 -10 0 -5 -16 -10 -35 -10 -19 0 -35 5 -35 10 0 6 7
10 15 10 21 0 21 68 -1 77 -13 5 -13 7 -2 14 29 19 38 9 38 -41z m180 4 c0
-33 5 -51 18 -60 15 -12 12 -13 -25 -14 -24 0 -43 5 -43 10 0 6 7 10 15 10 22
0 20 66 -2 74 -15 6 -15 8 -3 16 31 20 40 11 40 -36z m-95 -539 l0 -440 -440
0 -440 0 -3 443 -2 442 442 -2 443 -3 0 -440z m-924 378 c19 -50 -21 -110 -58
-87 -26 16 -37 54 -24 87 8 21 17 27 41 27 24 0 33 -6 41 -27z m1019 -23 c0
-39 4 -50 16 -50 8 0 12 -4 9 -10 -3 -5 -22 -10 -41 -10 -19 0 -34 5 -34 10 0
6 7 10 15 10 11 0 15 11 15 40 0 30 -4 40 -16 40 -8 0 -12 5 -9 10 3 6 15 10
26 10 16 0 19 -7 19 -50z m-1050 -170 c0 -36 5 -52 18 -59 13 -8 7 -10 -28
-10 -25 1 -37 3 -27 6 20 5 25 78 5 86 -10 4 -9 8 2 16 26 18 30 13 30 -39z
m1064 34 c21 -20 21 -78 0 -98 -19 -20 -24 -20 -52 0 -27 18 -30 69 -5 96 20
22 37 23 57 2z m-1038 -190 c20 -29 11 -69 -18 -88 -23 -14 -50 2 -62 37 -11
31 15 77 44 77 11 0 27 -12 36 -26z m1024 -24 c0 -38 4 -50 15 -50 8 0 15 -4
15 -10 0 -5 -18 -10 -40 -10 -22 0 -40 5 -40 10 0 6 7 10 15 10 11 0 15 11 15
40 0 31 -4 40 -17 40 -15 0 -16 2 -3 10 31 20 40 11 40 -40z m-1040 -130 c43
-23 28 -120 -19 -120 -44 0 -64 89 -26 116 22 17 21 17 45 4z m1052 -7 c33
-30 15 -113 -24 -113 -22 0 -48 34 -48 62 0 25 29 68 47 68 3 0 15 -7 25 -17z
m-1062 -213 c0 -38 4 -50 15 -50 8 0 15 -4 15 -10 0 -5 -19 -10 -42 -10 -38 1
-41 2 -25 14 20 16 24 86 5 86 -9 0 -8 4 2 10 26 17 30 11 30 -40z m1050 4 c0
-33 5 -51 18 -60 15 -12 12 -13 -25 -14 -24 0 -43 5 -43 10 0 6 7 10 15 10 22
0 20 69 -2 77 -15 6 -15 7 3 14 32 13 34 11 34 -37z m-1016 -171 c17 -63 -44
-111 -78 -61 -19 26 -20 37 -6 73 8 22 15 26 42 23 27 -2 34 -9 42 -35z m136
-8 c0 -31 5 -47 15 -51 8 -4 12 -10 9 -15 -7 -12 -61 -11 -69 1 -3 6 1 10 9
10 12 0 16 10 16 40 0 22 -4 40 -10 40 -5 0 -10 5 -10 10 0 6 9 10 20 10 17 0
20 -7 20 -45z m204 12 c19 -52 -32 -107 -69 -77 -18 15 -20 81 -3 98 22 22 62
10 72 -21z m146 -17 c0 -39 4 -50 16 -50 8 0 12 -4 9 -10 -8 -12 -75 -13 -75
-1 0 5 7 11 15 15 21 8 21 76 -1 76 -8 0 -12 5 -9 10 3 6 15 10 26 10 16 0 19
-7 19 -50z m170 0 c0 -39 4 -50 16 -50 8 0 12 -4 9 -10 -3 -5 -19 -10 -35 -10
-16 0 -32 5 -35 10 -3 6 1 10 9 10 12 0 16 10 16 40 0 30 -4 40 -16 40 -8 0
-12 5 -9 10 3 6 15 10 26 10 16 0 19 -7 19 -50z m198 38 c15 -15 16 -63 2 -89
-6 -11 -21 -19 -35 -19 -28 0 -45 26 -45 67 0 34 16 53 45 53 12 0 26 -5 33
-12z m180 0 c7 -7 12 -28 12 -48 0 -39 -14 -60 -41 -60 -41 0 -62 56 -39 101
12 21 50 25 68 7z"/>
<path d="M424 4697 c-9 -25 0 -62 16 -62 10 0 15 10 15 34 0 36 -21 54 -31 28z"/>
<path d="M597 4704 c-4 -4 -7 -23 -7 -41 0 -27 4 -34 18 -31 12 2 17 13 17 37
0 33 -13 49 -28 35z"/>
<path d="M764 4697 c-10 -27 0 -62 19 -65 16 -3 18 2 15 34 -3 39 -24 57 -34
31z"/>
<path d="M940 4695 c-15 -18 -5 -65 15 -65 19 0 28 35 15 60 -13 24 -14 24
-30 5z"/>
<path d="M1111 4689 c-11 -31 -2 -61 18 -57 11 2 16 14 16 37 0 40 -21 53 -34
20z"/>
<path d="M700 4145 l0 -265 265 0 265 0 0 265 0 265 -265 0 -265 0 0 -265z
m100 175 c0 -29 5 -50 13 -53 6 -3 -8 -5 -33 -5 -25 0 -37 2 -27 5 12 3 17 15
17 44 0 21 -4 39 -10 39 -17 0 -11 18 8 23 28 6 32 -1 32 -53z m184 44 c24
-24 20 -80 -6 -98 -28 -20 -33 -20 -52 0 -32 32 -11 114 29 114 7 0 21 -7 29
-16z m156 -34 c0 -36 5 -52 18 -59 13 -8 7 -10 -28 -10 -35 0 -41 2 -27 10 20
12 24 75 5 82 -10 4 -9 8 2 16 26 18 30 13 30 -39z m-336 -136 c20 -8 31 -66
17 -93 -13 -23 -50 -28 -69 -9 -16 16 -16 80 0 96 13 13 28 15 52 6z m190 -26
c20 -58 -28 -112 -70 -78 -17 15 -19 63 -3 91 16 30 61 22 73 -13z m164 20
c16 -16 16 -80 0 -96 -31 -31 -78 -3 -78 48 0 51 47 79 78 48z m-358 -218 c0
-29 5 -50 13 -53 6 -3 -8 -5 -33 -5 -25 0 -37 2 -27 5 12 3 17 15 17 44 0 21
-4 39 -10 39 -17 0 -11 18 8 23 28 6 32 -1 32 -53z m354 44 c33 -32 11 -114
-29 -114 -19 0 -45 39 -45 67 0 23 32 63 49 63 5 0 17 -7 25 -16z m-184 -43
c0 -39 4 -51 18 -54 9 -3 -3 -5 -28 -6 -35 0 -41 2 -27 10 23 13 24 79 1 79
-8 0 -12 5 -9 10 3 6 15 10 26 10 16 0 19 -7 19 -49z"/>
<path d="M942 4348 c-16 -16 -15 -53 2 -67 12 -10 17 -8 25 8 14 25 14 33 -2
54 -10 14 -15 15 -25 5z"/>
<path d="M764 4167 c-9 -25 0 -62 16 -62 10 0 15 10 15 34 0 36 -21 54 -31 28z"/>
<path d="M935 4160 c-8 -26 3 -60 20 -60 8 0 17 9 20 20 8 26 -3 60 -20 60 -8
0 -17 -9 -20 -20z"/>
<path d="M1111 4162 c-14 -26 -3 -64 18 -60 11 2 16 14 16 37 0 39 -19 52 -34
23z"/>
<path d="M1108 3982 c-6 -22 8 -62 21 -62 13 0 25 45 17 65 -8 21 -33 19 -38
-3z"/>
<path d="M424 4517 c-9 -25 0 -62 16 -62 10 0 15 10 15 34 0 36 -21 54 -31 28z"/>
<path d="M1470 4339 c-17 -30 3 -77 25 -59 19 16 19 54 1 69 -12 10 -17 8 -26
-10z"/>
<path d="M424 4167 c-9 -25 0 -62 16 -62 10 0 15 10 15 34 0 36 -21 54 -31 28z"/>
<path d="M424 3986 c-9 -25 0 -61 16 -61 10 0 16 12 18 38 2 28 0 37 -13 37
-8 0 -18 -6 -21 -14z"/>
<path d="M1465 3980 c-7 -21 10 -60 25 -60 12 0 24 46 16 65 -8 21 -34 19 -41
-5z"/>
<path d="M424 3637 c-9 -25 0 -62 16 -62 10 0 15 10 15 34 0 36 -21 54 -31 28z"/>
<path d="M764 3636 c-9 -25 0 -61 16 -61 10 0 16 12 18 38 2 28 0 37 -13 37
-8 0 -18 -6 -21 -14z"/>
<path d="M1285 3630 c-7 -23 2 -60 15 -60 15 0 29 35 23 58 -7 28 -30 28 -38
2z"/>
<path d="M1467 3628 c-6 -23 8 -58 23 -58 12 0 24 46 16 65 -8 22 -33 18 -39
-7z"/>
<path d="M1930 4675 l0 -85 -85 0 -85 0 0 -90 0 -90 85 0 85 0 0 -90 0 -90
-85 0 -85 0 0 -85 0 -85 175 0 175 0 0 -265 0 -265 85 0 85 0 0 265 0 265 -85
0 -86 0 3 86 3 86 85 0 85 0 3 -86 3 -86 84 0 85 0 0 -90 0 -90 90 0 90 0 0
-90 0 -90 -90 0 -90 0 0 -260 0 -260 178 -2 177 -3 3 -87 3 -88 -265 0 -265 0
-3 -87 -3 -88 -87 -3 -88 -3 0 181 0 180 85 0 85 0 0 85 0 85 -435 0 -435 0 0
-85 0 -85 -90 0 -90 0 0 85 0 85 -440 0 -440 0 0 -85 0 -85 175 0 175 0 0
-180 0 -180 175 0 175 0 0 -85 0 -85 -255 0 c-140 0 -258 0 -262 0 -5 0 -9 38
-11 85 l-3 85 -84 0 -85 0 0 -524 0 -525 85 -3 85 -3 0 263 0 262 180 0 180 0
0 -175 0 -175 85 0 85 0 0 -85 0 -85 353 -2 352 -3 3 -177 2 -178 85 0 85 0 0
-85 0 -85 -85 0 -85 0 0 -439 0 -440 85 -3 85 -3 0 178 0 177 175 0 175 0 0
175 0 175 90 0 89 0 3 -87 3 -88 88 -3 87 -3 0 -84 0 -84 -87 -3 -88 -3 -3
-173 -2 -172 90 0 90 0 0 85 0 85 85 0 84 0 3 87 3 88 88 3 87 3 0 -91 0 -90
-85 0 -85 0 0 -85 0 -85 85 0 85 0 0 85 0 85 175 0 175 0 0 -85 0 -85 90 0 90
0 0 85 0 86 88 -3 87 -3 5 -85 5 -85 523 0 522 0 0 443 0 442 -265 0 -265 0 0
85 0 85 265 0 265 0 0 90 0 90 -260 0 -259 0 -3 -87 -3 -88 -87 -3 -88 -3 0
91 0 90 85 0 84 0 3 88 3 87 88 3 87 3 0 84 0 85 -85 0 -84 0 -3 -87 -3 -88
-87 -3 -88 -3 0 181 0 180 85 0 85 0 0 175 0 175 -85 0 -84 0 -3 88 -3 87
-262 3 -263 2 0 175 0 175 -90 0 -90 0 0 90 0 90 90 0 90 0 0 85 0 85 -90 0
-90 0 0 530 0 530 -85 0 -85 0 0 90 0 90 85 0 85 0 0 85 0 85 -85 0 -85 0 0
-85 0 -85 -90 0 -90 0 0 85 0 85 -85 0 -85 0 0 -85 0 -85 -265 0 -265 0 0 -90
0 -90 -90 0 -90 0 0 175 0 175 -90 0 -90 0 0 -85z m110 5 c0 -27 5 -50 10 -50
6 0 10 -4 10 -10 0 -5 -16 -10 -35 -10 -19 0 -35 5 -35 10 0 6 7 10 15 10 21
0 21 68 -1 77 -13 5 -13 7 -2 14 29 19 38 9 38 -41z m878 -3 c2 -26 7 -47 13
-47 5 0 9 -4 9 -10 0 -5 -16 -10 -35 -10 -33 0 -48 14 -23 22 17 6 16 67 -2
73 -13 5 -13 7 0 15 25 16 35 5 38 -43z m352 3 c0 -38 4 -50 15 -50 8 0 15 -4
15 -10 0 -5 -19 -10 -42 -10 -38 1 -41 2 -25 14 20 15 23 72 5 79 -10 4 -9 8
2 16 26 18 30 13 30 -39z m-1418 -175 c-3 -35 -1 -46 12 -51 9 -3 16 -10 16
-15 0 -12 -67 -11 -75 1 -3 6 1 10 9 10 12 0 16 10 16 40 0 22 -5 40 -11 40
-5 0 -7 5 -4 10 3 6 14 10 24 10 16 0 18 -6 13 -45z m212 13 c21 -61 -37 -119
-71 -72 -16 23 -17 76 -1 92 22 22 62 10 72 -20z m326 -18 c0 -27 5 -50 10
-50 6 0 10 -4 10 -10 0 -5 -16 -10 -35 -10 -19 0 -35 5 -35 10 0 6 5 10 10 10
6 0 10 18 10 40 0 22 -5 40 -11 40 -5 0 -7 5 -4 10 3 6 15 10 26 10 16 0 19
-7 19 -50z m201 19 c10 -27 10 -36 -2 -58 -19 -34 -53 -39 -73 -9 -19 26 -20
37 -6 72 7 20 17 26 39 26 23 0 31 -6 42 -31z m149 -19 c0 -39 4 -50 16 -50 8
0 12 -4 9 -10 -3 -5 -22 -10 -41 -10 -19 0 -34 5 -34 10 0 6 7 10 15 10 11 0
15 11 15 40 0 30 -4 40 -16 40 -8 0 -12 5 -9 10 3 6 15 10 26 10 16 0 19 -7
19 -50z m180 0 c0 -27 5 -50 10 -50 6 0 10 -4 10 -10 0 -5 -16 -10 -35 -10
-33 0 -48 14 -23 22 15 5 16 69 1 75 -18 7 -6 23 18 23 16 0 19 -7 19 -50z
m170 5 c0 -31 5 -47 15 -51 8 -4 15 -10 15 -15 0 -12 -67 -11 -75 1 -3 6 1 10
9 10 12 0 16 10 16 40 0 22 -4 40 -10 40 -5 0 -10 5 -10 10 0 6 9 10 20 10 17
0 20 -7 20 -45z m-275 -185 l0 -85 -87 -3 -88 -3 0 -83 c0 -45 -2 -85 -4 -87
-2 -2 -43 -3 -90 -1 l-86 3 0 175 0 174 178 -2 177 -3 0 -85z m-763 43 c22
-20 23 -61 2 -91 -18 -26 -37 -28 -58 -6 -31 31 -12 114 26 114 6 0 20 -7 30
-17z m186 -15 c25 -52 -13 -112 -57 -89 -47 26 -28 126 23 119 11 -2 27 -15
34 -30z m166 16 c30 -30 12 -114 -25 -114 -17 0 -49 40 -49 63 0 28 26 67 45
67 7 0 21 -7 29 -16z m530 0 c29 -29 12 -114 -22 -114 -4 0 -18 7 -30 16 -27
18 -30 69 -5 96 20 22 37 23 57 2z m166 -38 c0 -34 5 -56 13 -59 6 -3 -6 -6
-28 -6 -32 0 -36 2 -22 10 22 13 24 79 2 79 -34 0 -12 23 28 29 4 0 7 -23 7
-53z m170 4 c0 -36 5 -52 18 -59 13 -8 7 -10 -28 -10 -35 0 -41 2 -27 10 20
12 24 75 5 82 -10 4 -9 8 2 16 26 18 30 13 30 -39z m-1394 -155 c34 -53 -16
-122 -62 -85 -17 15 -19 81 -2 98 19 19 46 14 64 -13z m164 -25 c0 -27 5 -50
10 -50 6 0 10 -4 10 -10 0 -5 -16 -10 -35 -10 -36 0 -47 13 -20 24 20 7 20 65
-1 73 -13 5 -13 7 -2 14 29 19 38 9 38 -41z m370 31 c14 -26 13 -74 -2 -89
-18 -18 -56 -14 -68 7 -23 45 -4 101 35 101 14 0 29 -8 35 -19z m340 -31 c0
-27 5 -50 10 -50 6 0 10 -4 10 -10 0 -5 -16 -10 -35 -10 -19 0 -35 5 -35 10 0
6 5 10 10 10 6 0 10 18 10 40 0 22 -5 40 -11 40 -5 0 -7 5 -4 10 3 6 15 10 26
10 16 0 19 -7 19 -50z m170 0 c0 -38 4 -50 15 -50 8 0 15 -4 15 -10 0 -5 -18
-10 -40 -10 -22 0 -40 5 -40 10 0 6 7 10 15 10 11 0 15 11 15 40 0 22 -5 40
-11 40 -5 0 -7 5 -4 10 3 6 13 10 21 10 10 0 14 -13 14 -50z m198 38 c17 -17
15 -83 -2 -98 -46 -37 -96 32 -62 85 18 27 45 32 64 13z m162 -38 c0 -38 4
-50 15 -50 8 0 15 -4 15 -10 0 -5 -18 -10 -40 -10 -22 0 -40 5 -40 10 0 6 7
10 15 10 11 0 15 11 15 40 0 22 -5 40 -11 40 -5 0 -7 5 -4 10 3 6 13 10 21 10
10 0 14 -13 14 -50z m-112 -183 l3 -87 -178 2 -178 3 -3 74 c-2 41 -1 80 2 88
5 11 40 13 178 11 l173 -3 3 -88z m-593 49 c38 -27 18 -116 -26 -116 -46 0
-62 95 -21 120 22 13 25 12 47 -4z m182 -93 c14 -11 10 -13 -28 -13 -35 1 -40
3 -26 11 11 6 17 22 17 44 0 24 -5 35 -17 38 -15 3 -13 6 7 14 24 10 25 9 28
-36 2 -28 9 -51 19 -58z m541 45 c3 -37 -17 -68 -43 -68 -45 0 -62 87 -23 114
31 22 62 1 66 -46z m-1088 7 c0 -31 5 -47 18 -54 13 -8 7 -10 -28 -10 -35 0
-41 2 -27 10 23 13 24 79 1 79 -8 0 -12 5 -9 10 3 6 15 10 26 10 16 0 19 -7
19 -45z m11 -135 c14 -8 19 -21 19 -48 0 -43 -14 -62 -47 -62 -40 0 -59 73
-27 104 18 19 28 20 55 6z m527 -2 c13 -13 16 -66 6 -92 -9 -23 -61 -21 -74 3
-30 57 26 131 68 89z m191 -20 c22 -39 5 -82 -33 -86 -36 -4 -48 7 -49 51 -2
67 52 90 82 35z m161 -18 c0 -27 5 -50 10 -50 6 0 10 -4 10 -10 0 -5 -16 -10
-35 -10 -19 0 -35 5 -35 10 0 6 7 10 15 10 21 0 21 68 -1 77 -13 5 -13 7 -2
14 29 19 38 9 38 -41z m180 4 c0 -33 5 -51 18 -60 15 -12 12 -13 -25 -14 -24
0 -43 5 -43 10 0 6 7 10 15 10 22 0 20 69 -2 77 -15 6 -15 7 3 14 32 13 34 11
34 -37z m-462 -276 l-3 -173 -87 -3 -88 -3 0 176 0 175 90 0 90 0 -2 -172z
m352 87 l0 -85 -90 0 -90 0 0 85 0 85 90 0 90 0 0 -85z m-942 43 c7 -7 12 -28
12 -48 0 -39 -14 -60 -41 -60 -41 0 -62 56 -39 101 12 21 50 25 68 7z m332
-38 c0 -27 5 -50 10 -50 6 0 10 -4 10 -10 0 -5 -15 -10 -34 -10 -19 0 -38 5
-41 10 -3 6 1 10 9 10 12 0 16 10 16 40 0 22 -5 40 -11 40 -5 0 -7 5 -4 10 3
6 15 10 26 10 16 0 19 -7 19 -50z m368 38 c16 -16 16 -80 0 -96 -44 -44 -100
29 -68 89 12 21 50 25 68 7z m366 -20 c20 -58 -28 -112 -70 -78 -17 15 -19 81
-2 98 22 22 62 10 72 -20z m-734 -199 c0 -31 4 -48 10 -44 6 3 10 1 10 -4 0
-6 -19 -11 -42 -11 -38 1 -41 2 -25 14 18 14 24 76 7 76 -17 0 -11 18 8 23 28
6 32 -1 32 -54z m374 39 c9 -12 16 -33 16 -45 0 -23 -32 -63 -49 -63 -38 0
-58 99 -23 119 26 16 39 13 56 -11z m168 5 c33 -30 15 -113 -24 -113 -42 0
-63 77 -31 112 20 22 31 23 55 1z m182 4 c36 -26 16 -117 -26 -117 -17 0 -48
41 -48 65 0 24 31 65 48 65 5 0 16 -6 26 -13z m56 -222 l0 -85 -85 0 -85 0 0
-90 0 -90 85 0 85 0 0 -90 0 -90 -85 0 -85 0 0 -85 0 -85 85 0 85 0 0 -90 0
-90 -85 0 -85 0 0 -90 0 -90 85 0 85 0 0 -85 0 -85 -85 0 -85 0 -2 -177 -3
-178 -87 -3 -88 -3 0 -84 0 -85 90 0 90 0 0 -90 0 -90 -90 0 -90 0 0 90 0 89
-87 3 -88 3 0 170 0 170 88 3 87 3 0 89 0 90 -90 0 -90 0 2 173 3 172 88 3 88
3 -3 87 -3 87 -172 3 -173 2 0 -90 0 -90 -90 0 -91 0 3 -87 3 -88 88 -3 87 -3
0 -84 0 -84 88 -3 87 -3 3 -87 3 -88 -91 0 -90 0 0 90 0 91 -87 -3 -88 -3 -3
-172 -2 -172 87 -3 88 -3 3 -87 3 -88 -175 0 -175 0 -3 -87 -3 -88 -177 -3
-178 -2 0 90 0 90 90 0 90 0 0 350 0 349 -87 3 -88 3 -3 88 -3 87 -84 0 -85 0
0 -175 0 -175 85 0 85 0 0 -90 0 -90 -85 0 -85 0 0 90 0 90 -90 0 -90 0 0 -90
0 -91 -87 3 -88 3 0 85 0 85 88 3 87 3 0 84 0 85 -84 0 c-98 0 -96 -2 -96 106
l0 74 -85 0 -85 0 0 -90 0 -90 90 0 90 0 0 -85 0 -85 -90 0 -90 0 0 85 0 84
-87 3 -88 3 -3 178 -2 177 177 -2 178 -3 3 -87 3 -88 84 0 85 0 0 90 0 89 -87
3 -88 3 0 80 0 80 88 3 87 3 0 -86 0 -85 175 0 175 0 0 -90 0 -90 90 0 90 0 0
90 0 91 88 -3 87 -3 3 -87 3 -88 84 0 85 0 0 175 0 175 175 0 174 0 3 88 3 87
88 3 87 3 0 89 0 90 90 0 90 0 0 85 0 85 85 0 85 0 0 -85z m-2864 29 c20 -29
11 -69 -18 -88 -23 -14 -50 2 -62 37 -11 31 15 77 44 77 11 0 27 -12 36 -26z
m144 -24 c0 -38 4 -50 15 -50 8 0 15 -4 15 -10 0 -5 -18 -10 -40 -10 -22 0
-40 5 -40 10 0 6 7 10 15 10 11 0 15 11 15 40 0 22 -5 40 -11 40 -5 0 -7 5 -4
10 3 6 13 10 21 10 10 0 14 -13 14 -50z m178 -3 c2 -26 7 -47 13 -47 5 0 9 -4
9 -10 0 -5 -15 -10 -34 -10 -19 0 -38 5 -41 10 -3 6 1 10 9 10 12 0 16 10 16
40 0 22 -5 40 -11 40 -5 0 -7 5 -4 11 4 5 14 9 23 7 13 -2 18 -16 20 -51z
m172 3 c0 -27 5 -50 10 -50 6 0 10 -4 10 -10 0 -5 -16 -10 -35 -10 -19 0 -35
5 -35 10 0 6 7 10 15 10 21 0 21 68 0 76 -20 8 -9 24 16 24 16 0 19 -7 19 -50z
m188 38 c16 -16 16 -80 0 -96 -31 -31 -78 -3 -78 48 0 51 47 79 78 48z m342
-38 c0 -38 4 -50 15 -50 8 0 15 -4 15 -10 0 -5 -18 -10 -40 -10 -22 0 -40 5
-40 10 0 6 7 10 15 10 11 0 15 11 15 40 0 31 -4 40 -17 40 -15 0 -16 2 -3 10
31 20 40 11 40 -40z m180 0 c0 -38 4 -50 15 -50 8 0 15 -4 15 -10 0 -5 -18
-10 -40 -10 -22 0 -40 5 -40 10 0 6 7 10 15 10 11 0 15 11 15 40 0 22 -5 40
-11 40 -5 0 -7 5 -4 10 3 6 13 10 21 10 10 0 14 -13 14 -50z m196 25 c34 -53
-16 -122 -62 -85 -17 15 -19 81 -2 98 19 19 46 14 64 -13z m164 -25 c0 -27 5
-50 10 -50 6 0 10 -4 10 -10 0 -5 -16 -10 -35 -10 -19 0 -35 5 -35 10 0 6 7
10 15 10 21 0 21 68 0 76 -20 8 -9 24 16 24 16 0 19 -7 19 -50z m170 0 c0 -39
4 -50 16 -50 8 0 12 -4 9 -10 -3 -5 -22 -10 -41 -10 -19 0 -34 5 -34 10 0 6 7
10 15 10 11 0 15 11 15 40 0 31 -4 40 -17 40 -15 0 -16 2 -3 10 31 20 40 11
40 -40z m357 42 c36 -23 20 -112 -20 -112 -33 0 -47 18 -47 60 0 51 31 75 67
52z m183 -11 c14 -26 13 -74 -2 -89 -7 -7 -21 -12 -33 -12 -29 0 -45 19 -45
53 0 41 17 67 45 67 14 0 29 -8 35 -19z m150 -31 c0 -38 4 -50 15 -50 8 0 15
-4 15 -10 0 -5 -16 -10 -35 -10 -19 0 -35 5 -35 10 0 6 5 10 10 10 6 0 10 18
10 40 0 22 -5 40 -11 40 -5 0 -7 5 -4 10 3 6 13 10 21 10 10 0 14 -13 14 -50z
m180 0 c0 -38 4 -50 15 -50 8 0 15 -4 15 -10 0 -5 -18 -10 -40 -10 -22 0 -40
5 -40 10 0 6 7 10 15 10 11 0 15 11 15 40 0 22 -5 40 -11 40 -5 0 -7 5 -4 10
3 6 13 10 21 10 10 0 14 -13 14 -50z m368 -3 c2 -26 7 -47 13 -47 5 0 9 -4 9
-10 0 -5 -15 -10 -34 -10 -19 0 -38 5 -41 10 -3 6 1 10 9 10 12 0 16 10 16 40
0 22 -5 40 -11 40 -5 0 -7 5 -4 11 4 5 14 9 23 7 13 -2 18 -16 20 -51z m-2398
-177 l0 -90 -90 0 -90 0 0 83 c0 46 3 87 7 90 3 4 44 7 90 7 l83 0 0 -90z
m880 0 l0 -90 -262 2 -263 3 -3 65 c-2 35 0 75 3 87 l5 23 260 0 260 0 0 -90z
m-1130 1 c0 -30 5 -51 13 -54 6 -3 -8 -5 -33 -5 -25 0 -37 2 -27 5 12 3 17 15
17 44 0 21 -4 39 -10 39 -5 0 -10 5 -10 10 0 6 11 10 25 10 23 0 25 -3 25 -49z
m364 33 c3 -9 6 -31 6 -50 0 -27 -5 -37 -26 -46 -23 -11 -29 -10 -45 11 -21
26 -24 53 -9 82 13 24 65 26 74 3z m174 4 c29 -29 5 -108 -33 -108 -24 0 -45
30 -45 64 0 37 15 56 45 56 12 0 26 -5 33 -12z m722 -7 c22 -43 2 -101 -35
-101 -38 0 -62 79 -33 108 18 18 56 14 68 -7z m850 -30 c0 -30 5 -51 13 -54 6
-3 -6 -6 -28 -6 -32 0 -36 2 -22 10 22 13 24 79 2 79 -8 0 -15 5 -15 10 0 6
11 10 25 10 23 0 25 -3 25 -49z m384 12 c15 -56 -36 -107 -72 -71 -13 13 -17
90 -5 102 4 4 21 6 37 4 25 -2 32 -9 40 -35z m-2475 -165 c22 -39 5 -82 -33
-86 -34 -4 -46 10 -46 59 0 62 50 80 79 27z m151 -18 c0 -27 5 -50 10 -50 6 0
10 -4 10 -10 0 -5 -16 -10 -35 -10 -19 0 -35 5 -35 10 0 6 7 10 15 10 21 0 21
68 -1 77 -13 5 -13 7 -2 14 29 19 38 9 38 -41z m188 38 c7 -7 12 -28 12 -48 0
-41 -14 -60 -47 -60 -40 0 -56 57 -27 98 17 24 43 29 62 10z m162 -38 c0 -27
5 -50 10 -50 6 0 10 -4 10 -10 0 -5 -16 -10 -35 -10 -19 0 -35 5 -35 10 0 6 7
10 15 10 21 0 21 68 -1 77 -13 5 -13 7 -2 14 29 19 38 9 38 -41z m200 31 c14
-26 13 -74 -2 -89 -33 -33 -78 -2 -78 52 0 49 59 76 80 37z m178 7 c14 -18 17
-48 9 -80 -6 -23 -13 -28 -37 -28 -47 0 -66 53 -34 98 17 24 46 29 62 10z
m153 -36 c-2 -31 2 -44 13 -48 30 -12 16 -24 -26 -24 -38 1 -41 2 -25 14 19
15 23 71 6 82 -8 4 -7 9 2 15 24 15 34 3 30 -39z m189 -2 c0 -27 5 -50 10 -50
6 0 10 -4 10 -10 0 -5 -16 -10 -35 -10 -19 0 -35 5 -35 10 0 6 7 10 15 10 21
0 21 68 -1 77 -13 5 -13 7 -2 14 29 19 38 9 38 -41z m364 34 c19 -18 21 -75 4
-92 -7 -7 -21 -12 -33 -12 -29 0 -45 19 -45 53 0 60 39 87 74 51z m174 4 c13
-13 16 -66 6 -92 -9 -23 -61 -21 -74 3 -30 57 26 131 68 89z m178 -13 c13 -20
15 -33 7 -58 -8 -28 -13 -32 -43 -32 -34 0 -35 1 -38 43 -5 70 40 98 74 47z
m694 -25 c0 -27 5 -50 10 -50 6 0 10 -4 10 -10 0 -5 -16 -10 -35 -10 -19 0
-35 5 -35 10 0 6 7 10 15 10 22 0 20 66 -2 74 -15 6 -15 8 -3 16 31 20 40 11
40 -40z m-2966 -167 c11 -39 -13 -83 -44 -83 -28 0 -54 44 -45 77 8 34 22 44
55 41 18 -2 27 -11 34 -35z m656 -8 c0 -31 5 -47 15 -51 8 -4 12 -10 9 -15 -7
-12 -74 -11 -74 1 0 6 7 10 15 10 11 0 15 11 15 40 0 30 -4 40 -16 40 -8 0
-12 5 -9 10 3 6 15 10 26 10 16 0 19 -7 19 -45z m180 -5 c0 -39 4 -50 16 -50
8 0 12 -4 9 -10 -8 -12 -75 -13 -75 -1 0 5 7 11 15 15 21 8 21 76 -1 76 -8 0
-12 5 -9 10 3 6 15 10 26 10 16 0 19 -7 19 -50z m379 36 c17 -21 10 -87 -11
-100 -39 -24 -79 36 -59 87 12 30 50 37 70 13z m185 -19 c19 -52 -32 -107 -69
-77 -18 15 -20 81 -3 98 22 22 62 10 72 -21z m180 1 c21 -61 -37 -119 -71 -72
-16 23 -17 76 -1 92 22 22 62 10 72 -20z m146 -18 c0 -39 4 -50 16 -50 8 0 12
-4 9 -10 -3 -5 -22 -10 -41 -10 -19 0 -34 5 -34 10 0 6 7 10 15 10 11 0 15 11
15 40 0 30 -4 40 -16 40 -8 0 -12 5 -9 10 3 6 15 10 26 10 16 0 19 -7 19 -50z
m198 38 c15 -15 16 -63 2 -89 -23 -42 -80 -13 -80 41 0 51 47 79 78 48z m886
-25 c15 -56 -36 -107 -72 -71 -16 16 -15 81 0 96 7 7 24 12 38 10 18 -2 27
-12 34 -35z m164 25 c16 -16 16 -80 0 -96 -44 -44 -100 29 -68 89 12 21 50 25
68 7z m-2980 -190 c15 -33 6 -75 -19 -89 -41 -22 -79 32 -60 84 17 44 59 47
79 5z m154 20 c29 -22 27 -92 -2 -108 -47 -25 -88 46 -56 95 18 28 34 31 58
13z m187 -19 c28 -50 -13 -113 -59 -89 -27 14 -29 94 -2 109 25 15 44 9 61
-20z m165 15 c21 -20 20 -73 -1 -96 -20 -22 -31 -23 -55 -1 -34 31 -15 113 27
113 7 0 21 -7 29 -16z m516 -34 c0 -36 5 -52 18 -59 13 -8 7 -10 -28 -10 -35
0 -41 2 -27 10 11 6 17 22 17 44 0 27 -4 35 -17 35 -16 1 -16 2 1 15 31 23 36
18 36 -35z m540 -4 c0 -34 5 -56 13 -59 6 -3 -6 -6 -28 -6 -32 0 -36 2 -22 10
22 13 24 79 2 79 -34 0 -12 23 28 29 4 0 7 -23 7 -53z m354 41 c35 -26 16
-117 -24 -117 -22 0 -44 31 -44 63 0 57 31 81 68 54z m346 -37 c0 -36 5 -52
18 -59 13 -8 7 -10 -28 -10 -35 0 -41 2 -27 10 20 12 24 75 5 82 -10 4 -9 8 2
16 26 18 30 13 30 -39z m192 33 c10 -9 18 -29 18 -45 0 -27 -30 -68 -49 -68
-38 0 -58 99 -23 119 24 14 33 13 54 -6z m518 -37 c0 -34 5 -56 13 -59 6 -3
-6 -6 -28 -6 -32 0 -36 2 -22 10 22 13 24 79 2 79 -34 0 -12 23 28 29 4 0 7
-23 7 -53z m187 -53 c14 -11 10 -13 -28 -12 -24 1 -36 3 -26 6 12 3 17 15 17
44 0 21 -4 39 -10 39 -17 0 -11 18 8 22 14 3 18 -5 20 -42 2 -27 9 -50 19 -57z
m163 57 c0 -36 5 -52 18 -59 13 -8 7 -10 -28 -10 -35 0 -41 2 -27 10 20 12 24
75 5 82 -10 4 -9 8 2 16 26 18 30 13 30 -39z m192 33 c22 -20 23 -70 1 -95
-20 -22 -37 -23 -57 -2 -31 31 -12 114 26 114 6 0 20 -7 30 -17z m-297 -223
l0 -85 -87 -3 -88 -3 0 91 0 91 88 -3 87 -3 0 -85z m353 3 l-3 -88 -85 0 -85
0 -3 88 -3 87 91 0 91 0 -3 -87z m-3572 31 c20 -29 11 -69 -18 -88 -23 -14
-50 2 -62 37 -11 31 15 77 44 77 11 0 27 -12 36 -26z m172 -6 c19 -41 -2 -83
-43 -83 -24 0 -31 5 -38 32 -20 69 51 113 81 51z m152 -18 c0 -27 5 -50 10
-50 6 0 10 -4 10 -10 0 -5 -16 -10 -35 -10 -19 0 -35 5 -35 10 0 6 5 10 10 10
6 0 10 18 10 40 0 25 -5 40 -12 40 -9 0 -8 4 2 10 31 20 40 11 40 -40z m170 0
c0 -27 5 -50 10 -50 6 0 10 -4 10 -10 0 -5 -16 -10 -35 -10 -36 0 -47 13 -20
24 20 7 20 65 -1 73 -13 5 -13 7 -2 14 29 19 38 9 38 -41z m374 18 c20 -58
-28 -112 -70 -78 -17 15 -19 81 -2 98 22 22 62 10 72 -20z m532 7 c34 -53 -16
-122 -62 -85 -17 15 -19 81 -2 98 19 19 46 14 64 -13z m702 13 c16 -16 16 -80
0 -96 -18 -18 -56 -14 -68 7 -32 60 24 133 68 89z m178 -13 c34 -53 -16 -122
-62 -85 -17 15 -19 81 -2 98 19 19 46 14 64 -13z m514 -25 c0 -27 5 -50 10
-50 6 0 10 -4 10 -10 0 -5 -16 -10 -35 -10 -19 0 -35 5 -35 10 0 6 7 10 15 10
11 0 15 11 15 40 0 31 -4 40 -17 40 -15 0 -16 2 -3 10 31 20 40 11 40 -40z
m197 19 c26 -55 -20 -114 -63 -79 -17 15 -19 81 -2 98 19 19 51 10 65 -19z
m357 -1 c20 -58 -28 -112 -70 -78 -17 15 -19 63 -3 91 16 30 61 22 73 -13z
m344 20 c16 -16 16 -80 0 -96 -18 -18 -56 -14 -68 7 -32 60 24 133 68 89z
m-3701 -265 c14 -11 10 -13 -28 -12 -24 1 -36 3 -26 6 12 3 17 15 17 44 0 21
-4 39 -10 39 -17 0 -11 18 8 22 14 3 18 -5 20 -42 2 -27 9 -50 19 -57z m531
45 c3 -37 -17 -68 -43 -68 -45 0 -62 87 -23 114 31 22 62 1 66 -46z m514 45
c33 -30 15 -113 -24 -113 -22 0 -48 34 -48 62 0 25 29 68 47 68 3 0 15 -7 25
-17z m374 -30 c8 -32 -14 -76 -39 -81 -30 -6 -47 17 -47 65 0 36 4 45 23 52
29 11 55 -3 63 -36z m174 16 c21 -39 -1 -99 -36 -99 -43 0 -61 87 -23 114 24
17 45 12 59 -15z m690 11 c24 -24 26 -57 4 -88 -17 -24 -43 -29 -62 -10 -17
17 -15 84 4 102 20 21 30 20 54 -4z m707 -87 c14 -11 10 -13 -28 -13 -35 1
-40 3 -26 11 18 11 25 79 7 79 -17 0 -11 18 8 22 14 3 18 -5 20 -42 2 -27 9
-50 19 -57z m191 45 c3 -37 -17 -68 -43 -68 -45 0 -62 87 -23 114 31 22 62 1
66 -46z m152 2 c0 -29 5 -50 13 -53 6 -3 -6 -5 -28 -5 -22 0 -34 2 -27 5 14 6
17 83 2 83 -17 0 -11 18 8 23 28 6 32 -1 32 -53z m184 44 c16 -16 20 -33 16
-69 -5 -47 -48 -60 -74 -23 -22 31 -20 64 4 88 24 24 34 25 54 4z m194 -46 c3
-37 -17 -68 -43 -68 -45 0 -62 87 -23 114 31 22 62 1 66 -46z m-3038 7 c0 -31
5 -47 18 -54 13 -8 7 -10 -28 -10 -35 0 -41 2 -27 10 18 11 25 79 7 79 -5 0
-10 5 -10 10 0 6 9 10 20 10 17 0 20 -7 20 -45z m-664 -150 c13 -20 15 -33 7
-58 -8 -28 -13 -32 -43 -32 -30 0 -35 4 -43 32 -12 39 12 83 43 83 11 0 27
-11 36 -25z m494 -21 c0 -33 5 -51 18 -60 15 -12 12 -13 -25 -14 -24 0 -43 5
-43 10 0 6 7 10 15 10 22 0 20 69 -2 77 -15 6 -15 7 3 14 32 13 34 11 34 -37z
m188 34 c7 -7 12 -28 12 -48 0 -41 -14 -60 -47 -60 -40 0 -58 67 -26 102 19
21 44 23 61 6z m162 -34 c0 -33 5 -51 18 -60 15 -12 12 -13 -25 -14 -24 0 -43
5 -43 10 0 6 7 10 15 10 21 0 21 68 -1 77 -13 5 -13 7 -2 14 29 19 38 9 38
-37z m378 34 c14 -14 16 -76 3 -96 -5 -8 -21 -12 -37 -10 -22 2 -30 10 -38 35
-15 56 36 107 72 71z m356 -4 c32 -31 13 -104 -27 -104 -32 0 -47 18 -47 56 0
34 21 64 45 64 7 0 21 -7 29 -16z m520 0 c19 -18 21 -75 4 -92 -7 -7 -21 -12
-33 -12 -30 0 -45 19 -45 56 0 34 21 64 45 64 7 0 21 -7 29 -16z m363 -15 c20
-41 0 -89 -38 -89 -46 0 -64 54 -33 98 21 30 55 25 71 -9z m323 -14 c0 -31 5
-47 15 -51 29 -12 14 -24 -27 -23 -42 0 -42 0 -20 16 26 18 31 70 6 80 -13 5
-13 7 -2 14 24 15 28 10 28 -36z m180 -1 c0 -33 5 -51 18 -60 15 -12 12 -13
-28 -13 -40 0 -43 1 -27 13 20 15 23 72 5 79 -10 4 -9 8 2 16 25 18 30 13 30
-35z m194 30 c19 -18 21 -75 4 -92 -7 -7 -21 -12 -33 -12 -30 0 -45 19 -45 56
0 34 21 64 45 64 7 0 21 -7 29 -16z m185 -16 c22 -39 5 -82 -33 -86 -34 -4
-46 10 -46 59 0 62 50 80 79 27z m151 -18 c0 -38 4 -50 15 -50 8 0 15 -4 15
-10 0 -5 -19 -10 -42 -10 -38 1 -41 2 -25 14 20 16 24 86 5 86 -9 0 -8 4 2 10
26 17 30 11 30 -40z m-3486 -167 c17 -63 -44 -111 -78 -61 -19 26 -20 37 -6
73 8 22 15 26 42 23 27 -2 34 -9 42 -35z m674 25 c16 -16 16 -80 0 -96 -44
-44 -100 29 -68 89 12 21 50 25 68 7z m186 -20 c21 -61 -37 -119 -71 -72 -16
23 -17 76 -1 92 22 22 62 10 72 -20z m156 -18 c0 -39 4 -50 16 -50 8 0 12 -4
9 -10 -3 -5 -22 -10 -41 -10 -19 0 -34 5 -34 10 0 6 7 10 15 10 11 0 15 11 15
40 0 30 -4 40 -16 40 -8 0 -12 5 -9 10 3 6 15 10 26 10 16 0 19 -7 19 -50z
m180 0 c0 -39 4 -50 16 -50 8 0 12 -4 9 -10 -3 -5 -19 -10 -35 -10 -16 0 -32
5 -35 10 -3 6 1 10 9 10 12 0 16 10 16 40 0 22 -4 40 -10 40 -5 0 -10 5 -10
10 0 6 9 10 20 10 17 0 20 -7 20 -50z m204 13 c15 -56 -36 -107 -72 -71 -16
16 -15 81 0 96 7 7 24 12 38 10 18 -2 27 -12 34 -35z m180 5 c21 -61 -37 -119
-71 -72 -16 23 -17 76 -1 92 22 22 62 10 72 -20z m514 20 c16 -16 16 -80 0
-96 -31 -31 -78 -3 -78 48 0 51 47 79 78 48z m186 -19 c20 -58 -28 -113 -69
-79 -18 15 -20 81 -3 98 21 21 62 10 72 -19z m530 0 c20 -58 -28 -113 -69 -79
-18 15 -20 81 -3 98 21 21 62 10 72 -19z m165 17 c17 -21 10 -87 -11 -100 -39
-24 -79 36 -59 87 12 30 50 37 70 13z m179 2 c15 -15 16 -63 2 -89 -6 -11 -21
-19 -35 -19 -28 0 -45 26 -45 67 0 34 16 53 45 53 12 0 26 -5 33 -12z m162
-38 c0 -27 5 -50 10 -50 6 0 10 -4 10 -10 0 -5 -16 -10 -35 -10 -19 0 -35 5
-35 10 0 6 5 10 10 10 6 0 10 18 10 40 0 22 -5 40 -11 40 -5 0 -7 5 -4 10 3 6
15 10 26 10 16 0 19 -7 19 -50z m196 22 c23 -47 -16 -110 -53 -86 -49 30 -37
118 14 112 17 -2 32 -12 39 -26z m324 -17 c0 -31 5 -47 15 -51 8 -4 15 -10 15
-15 0 -12 -67 -11 -75 1 -3 6 1 10 9 10 12 0 16 10 16 40 0 22 -5 40 -11 40
-5 0 -7 5 -4 10 3 6 13 10 21 10 10 0 14 -13 14 -45z m-450 -360 l0 -265 -265
0 -265 0 0 258 c0 142 3 262 7 265 3 4 123 7 265 7 l258 0 0 -265z m-2019 181
c-2 -34 2 -47 16 -55 14 -8 9 -10 -27 -10 -25 1 -37 3 -27 6 12 3 17 15 17 44
0 21 -4 39 -10 39 -17 0 -11 18 8 22 24 6 26 2 23 -46z m201 37 c24 -21 23
-68 -2 -93 -24 -24 -34 -25 -54 -4 -31 31 -12 114 26 114 6 0 20 -7 30 -17z
m698 -3 c24 -24 26 -57 4 -88 -18 -26 -37 -28 -58 -6 -30 30 -12 114 25 114 5
0 18 -9 29 -20z m352 3 c33 -30 15 -113 -24 -113 -42 0 -63 77 -31 112 20 22
31 23 55 1z m175 -90 c14 -11 10 -13 -28 -12 -36 0 -40 2 -21 9 17 7 22 17 22
45 0 24 -4 35 -15 35 -21 0 -19 18 3 22 14 3 18 -5 20 -42 2 -27 9 -50 19 -57z
m707 94 c36 -26 16 -117 -26 -117 -17 0 -48 41 -48 65 0 24 31 65 48 65 5 0
16 -6 26 -13z m178 -4 c32 -29 13 -113 -25 -113 -41 0 -62 77 -30 112 20 22
31 23 55 1z m-2310 -211 c-3 -31 1 -44 12 -48 9 -3 16 -10 16 -15 0 -12 -67
-11 -75 1 -3 6 1 10 9 10 12 0 16 10 16 40 0 22 -5 40 -11 40 -5 0 -7 5 -4 11
4 5 14 9 23 7 13 -2 16 -13 14 -46z m556 16 c11 -23 11 -33 0 -55 -18 -39 -60
-43 -76 -8 -16 34 -15 46 4 73 21 30 55 25 72 -10z m152 -18 c0 -39 4 -50 16
-50 8 0 12 -4 9 -10 -3 -5 -22 -10 -41 -10 -19 0 -34 5 -34 10 0 6 7 10 15 10
11 0 15 11 15 40 0 31 -4 40 -17 40 -15 0 -16 2 -3 10 31 20 40 11 40 -40z
m204 18 c20 -58 -28 -112 -70 -78 -17 15 -19 81 -2 98 22 22 62 10 72 -20z
m174 0 c19 -41 -2 -83 -43 -83 -24 0 -31 5 -38 32 -20 69 51 113 81 51z m324
-16 c-3 -31 1 -44 12 -48 28 -11 17 -24 -19 -24 -36 0 -47 13 -20 24 20 7 20
65 0 72 -19 8 -8 26 13 22 13 -2 16 -13 14 -46z m736 16 c18 -38 -2 -82 -40
-86 -34 -4 -52 27 -44 73 10 53 61 60 84 13z m356 -6 c12 -44 -5 -82 -38 -82
-30 0 -49 23 -49 60 0 39 20 62 52 58 19 -2 28 -11 35 -36z m164 26 c17 -17
15 -83 -2 -98 -46 -37 -96 32 -62 85 18 27 45 32 64 13z m162 -38 c0 -27 5
-50 10 -50 6 0 10 -4 10 -10 0 -5 -16 -10 -35 -10 -36 0 -47 13 -20 24 20 7
20 65 0 72 -20 8 -9 24 16 24 16 0 19 -7 19 -50z m-1860 -185 l0 -85 85 0 85
0 0 -90 0 -90 175 0 174 0 3 -87 3 -88 173 -3 172 -2 0 90 0 90 90 0 89 0 3
-87 3 -88 88 -3 87 -3 0 -84 0 -85 -530 0 -530 0 0 85 0 84 -87 3 -88 3 -3 88
-3 87 -174 0 -175 0 0 175 0 175 180 0 180 0 0 -85z m-760 36 c22 -43 2 -101
-35 -101 -38 0 -62 79 -33 108 18 18 56 14 68 -7z m168 7 c29 -29 5 -108 -33
-108 -24 0 -45 30 -45 64 0 37 15 56 45 56 12 0 26 -5 33 -12z m183 -22 c17
-63 -41 -113 -75 -64 -19 26 -20 37 -6 73 8 22 15 26 42 23 25 -2 33 -9 39
-32z m499 -15 c0 -30 5 -51 13 -54 6 -3 -6 -6 -28 -6 -32 0 -36 2 -22 10 23
13 24 79 1 79 -8 0 -12 5 -9 10 3 6 15 10 26 10 16 0 19 -7 19 -49z m201 22
c19 -50 -21 -111 -58 -87 -24 15 -35 56 -24 87 8 21 17 27 41 27 24 0 33 -6
41 -27z m149 -18 c0 -31 5 -47 18 -54 13 -8 7 -10 -28 -10 -35 0 -41 2 -27 10
23 13 24 79 1 79 -8 0 -12 5 -9 10 3 6 15 10 26 10 16 0 19 -7 19 -45z m734
12 c19 -52 -32 -107 -69 -77 -18 15 -20 81 -3 98 22 22 62 10 72 -21z m146
-12 c0 -31 5 -47 18 -54 13 -8 7 -10 -28 -10 -25 1 -37 3 -27 6 12 3 17 15 17
44 0 21 -4 39 -10 39 -5 0 -10 5 -10 10 0 6 9 10 20 10 17 0 20 -7 20 -45z
m88 -187 l3 -88 -91 0 -90 0 0 90 0 91 88 -3 87 -3 3 -87z m-2349 30 c22 -39
5 -82 -33 -86 -34 -4 -46 10 -46 59 0 62 50 80 79 27z m161 -18 c0 -27 5 -50
10 -50 6 0 10 -4 10 -10 0 -5 -16 -10 -35 -10 -19 0 -35 5 -35 10 0 6 7 10 15
10 21 0 21 68 -1 77 -13 5 -13 7 -2 14 29 19 38 9 38 -41z m170 4 c0 -33 5
-51 18 -60 15 -12 12 -13 -25 -14 -24 0 -43 5 -43 10 0 6 7 10 15 10 11 0 15
11 15 40 0 22 -3 39 -7 39 -20 -3 -26 2 -13 11 31 20 40 11 40 -36z m197 15
c8 -16 9 -36 4 -55 -6 -25 -12 -29 -41 -29 -30 0 -35 4 -43 32 -20 67 51 113
80 52z m697 15 c19 -18 21 -75 4 -92 -18 -18 -56 -14 -68 7 -22 43 -2 101 35
101 7 0 21 -7 29 -16z m185 -16 c22 -39 5 -82 -33 -86 -34 -4 -46 10 -46 59 0
62 50 80 79 27z m169 20 c14 -18 17 -48 9 -81 -7 -24 -12 -28 -40 -25 -26 2
-33 9 -41 35 -15 56 40 110 72 71z m162 -34 c0 -33 5 -51 18 -60 15 -12 12
-13 -25 -14 -24 0 -43 5 -43 10 0 6 7 10 15 10 22 0 20 66 -2 74 -15 6 -15 8
-3 16 31 20 40 11 40 -36z m178 -7 c2 -26 7 -47 13 -47 5 0 9 -4 9 -10 0 -5
-16 -10 -35 -10 -19 0 -35 5 -35 10 0 6 5 10 10 10 6 0 10 18 10 41 0 24 -4
38 -10 34 -5 -3 -10 -2 -10 4 0 11 20 21 35 17 6 -1 11 -24 13 -49z m190 41
c14 -18 17 -48 9 -80 -6 -23 -13 -28 -37 -28 -47 0 -66 53 -34 98 17 24 46 29
62 10z m361 -20 c23 -41 6 -82 -36 -86 -28 -3 -33 0 -40 25 -21 80 39 128 76
61z m169 20 c13 -13 16 -66 6 -92 -9 -23 -61 -21 -74 3 -30 57 26 131 68 89z
m174 -5 c34 -30 16 -103 -25 -103 -33 0 -47 19 -47 60 0 57 34 77 72 43z
m-2808 -196 c19 -52 -32 -107 -69 -77 -18 15 -20 81 -3 98 22 22 62 10 72 -21z
m180 1 c21 -61 -37 -119 -71 -72 -16 23 -17 76 -1 92 22 22 62 10 72 -20z
m146 -18 c0 -39 4 -50 16 -50 8 0 12 -4 9 -10 -3 -5 -22 -10 -41 -10 -19 0
-34 5 -34 10 0 6 7 10 15 10 11 0 15 11 15 40 0 30 -4 40 -16 40 -8 0 -12 5
-9 10 3 6 15 10 26 10 16 0 19 -7 19 -50z m370 31 c15 -29 12 -62 -7 -83 -34
-38 -73 -15 -73 42 0 20 5 41 12 48 18 18 56 14 68 -7z m169 5 c17 -21 10 -87
-11 -100 -39 -24 -79 36 -59 87 12 30 50 37 70 13z m709 2 c15 -15 16 -63 2
-89 -23 -42 -80 -13 -80 41 0 51 47 79 78 48z m161 -35 c-2 -30 1 -48 9 -51 7
-2 12 -8 12 -13 0 -12 -67 -12 -75 1 -3 6 1 10 9 10 12 0 16 10 16 40 0 22 -5
40 -11 40 -5 0 -7 5 -4 10 3 6 15 10 26 10 18 0 20 -6 18 -47z m369 35 c16
-16 16 -80 0 -96 -44 -44 -100 29 -68 89 12 21 50 25 68 7z m186 -19 c20 -58
-28 -113 -69 -79 -18 15 -20 81 -3 98 21 21 62 10 72 -19z m146 -14 c0 -31 5
-47 15 -51 8 -4 15 -10 15 -15 0 -12 -67 -11 -75 1 -3 6 1 10 9 10 12 0 16 10
16 40 0 22 -5 40 -11 40 -5 0 -7 5 -4 10 3 6 13 10 21 10 10 0 14 -13 14 -45z
m180 -5 c0 -39 4 -50 16 -50 8 0 12 -4 9 -10 -3 -5 -22 -10 -41 -10 -19 0 -34
5 -34 10 0 6 7 10 15 10 11 0 15 11 15 40 0 30 -4 40 -16 40 -8 0 -12 5 -9 10
3 6 15 10 26 10 16 0 19 -7 19 -50z m204 13 c7 -25 5 -38 -8 -58 -30 -45 -79
-24 -79 35 0 65 69 84 87 23z m-124 -288 l0 -175 -177 2 -178 3 0 85 0 85 88
3 87 3 0 84 0 85 90 0 90 0 0 -175z m-2701 124 c28 -50 -13 -113 -59 -89 -27
14 -29 94 -2 109 25 15 44 9 61 -20z m175 9 c22 -31 20 -64 -4 -88 -24 -24
-34 -25 -54 -4 -33 32 -11 114 29 114 8 0 21 -10 29 -22z m170 6 c31 -31 12
-114 -26 -114 -42 0 -63 77 -31 112 20 22 37 23 57 2z m506 -38 c0 -44 4 -55
18 -59 9 -3 -3 -5 -28 -6 -35 0 -41 2 -27 10 22 13 24 79 2 79 -34 0 -12 23
28 29 4 0 7 -23 7 -53z m199 23 c28 -50 -13 -113 -59 -89 -27 14 -29 94 -2
109 25 15 44 9 61 -20z m1211 -19 c0 -36 5 -52 18 -59 13 -8 7 -10 -28 -10
-35 0 -41 2 -27 10 20 12 24 75 5 82 -10 4 -9 8 2 16 26 18 30 13 30 -39z
m194 34 c31 -31 12 -114 -26 -114 -42 0 -63 77 -31 112 20 22 37 23 57 2z
m350 0 c33 -32 11 -114 -29 -114 -18 0 -45 39 -45 65 0 26 27 65 45 65 7 0 21
-7 29 -16z m-2832 -209 c-3 -35 -1 -46 12 -51 30 -12 16 -24 -26 -24 -38 1
-41 2 -25 14 20 16 24 86 5 86 -9 0 -8 4 2 10 30 19 38 11 32 -35z m712 39
c20 -8 31 -66 17 -93 -13 -23 -50 -28 -69 -9 -7 7 -12 28 -12 48 0 51 23 70
64 54z m166 -44 c0 -27 5 -50 10 -50 6 0 10 -4 10 -10 0 -5 -16 -10 -35 -10
-19 0 -35 5 -35 10 0 6 7 10 15 10 21 0 21 68 -1 77 -13 5 -13 7 -2 14 29 19
38 9 38 -41z m368 38 c16 -16 16 -80 0 -96 -19 -19 -56 -14 -69 9 -13 25 -4
85 14 92 22 9 43 7 55 -5z m186 -20 c20 -58 -28 -112 -70 -78 -17 15 -19 63
-3 91 16 30 61 22 73 -13z m146 -18 c0 -38 4 -50 15 -50 8 0 15 -4 15 -10 0
-5 -16 -10 -35 -10 -19 0 -35 5 -35 10 0 6 5 10 10 10 6 0 10 18 10 40 0 22
-5 40 -11 40 -5 0 -7 5 -4 10 3 6 13 10 21 10 10 0 14 -13 14 -50z m180 0 c0
-38 4 -50 15 -50 8 0 15 -4 15 -10 0 -5 -18 -10 -40 -10 -22 0 -40 5 -40 10 0
6 7 10 15 10 11 0 15 11 15 40 0 31 -4 40 -17 40 -15 0 -16 2 -3 10 31 20 40
11 40 -40z m204 18 c20 -58 -28 -112 -70 -78 -17 15 -19 63 -3 91 16 30 61 22
73 -13z m172 7 c34 -53 -16 -122 -62 -85 -17 15 -19 81 -2 98 19 19 46 14 64
-13z m172 13 c16 -16 16 -80 0 -96 -18 -18 -56 -14 -68 7 -32 60 24 133 68 89z
m532 -7 c14 -26 13 -74 -2 -89 -7 -7 -21 -12 -33 -12 -29 0 -45 19 -45 53 0
41 17 67 45 67 14 0 29 -8 35 -19z m-2804 -198 c8 -32 -14 -76 -39 -81 -30 -6
-47 17 -47 65 0 36 4 45 23 52 29 11 55 -3 63 -36z m700 0 c13 -51 -37 -102
-71 -73 -16 13 -20 77 -7 96 21 32 68 19 78 -23z m1226 23 c12 -17 9 -81 -4
-94 -29 -29 -78 5 -78 55 0 48 58 75 82 39z m186 -38 c3 -37 -17 -68 -43 -68
-45 0 -62 87 -23 114 31 22 62 1 66 -46z m530 0 c3 -37 -17 -68 -43 -68 -45 0
-62 87 -23 114 31 22 62 1 66 -46z m171 20 c23 -65 -39 -117 -74 -64 -12 17
-15 35 -10 56 12 56 66 61 84 8z m-1789 -17 c0 -39 4 -51 18 -54 9 -3 -3 -5
-28 -6 -35 0 -41 2 -27 10 23 13 24 79 1 79 -8 0 -12 5 -9 10 3 6 15 10 26 10
16 0 19 -7 19 -49z m530 0 c0 -39 4 -51 18 -54 9 -3 -3 -5 -28 -6 -35 0 -41 2
-27 10 23 13 24 79 1 79 -8 0 -12 5 -9 10 3 6 15 10 26 10 16 0 19 -7 19 -49z
m710 0 c0 -30 5 -51 13 -54 6 -3 -8 -5 -33 -5 -25 0 -37 2 -27 5 12 3 17 15
17 44 0 21 -4 39 -10 39 -5 0 -10 5 -10 10 0 6 11 10 25 10 23 0 25 -3 25 -49z
m170 4 c0 -31 5 -47 18 -54 13 -8 7 -10 -28 -10 -25 1 -37 3 -27 6 12 3 17 15
17 44 0 21 -4 39 -10 39 -5 0 -10 5 -10 10 0 6 9 10 20 10 17 0 20 -7 20 -45z"/>
<path d="M2004 4515 c-8 -19 4 -65 16 -65 15 0 32 39 25 60 -7 24 -33 26 -41
5z"/>
<path d="M2534 4517 c-9 -25 0 -62 16 -62 10 0 15 10 15 34 0 36 -21 54 -31
28z"/>
<path d="M2012 4348 c-16 -16 -15 -53 2 -67 12 -10 17 -8 25 8 14 25 14 33 -2
54 -10 14 -15 15 -25 5z"/>
<path d="M2184 4347 c-10 -27 0 -62 19 -65 16 -3 18 2 15 34 -3 39 -24 57 -34
31z"/>
<path d="M2360 4339 c-17 -30 3 -77 25 -59 19 16 19 54 1 69 -12 10 -17 8 -26
-10z"/>
<path d="M2891 4339 c-5 -13 -8 -26 -6 -29 1 -3 5 -13 9 -24 5 -15 9 -16 21
-6 19 16 19 54 0 70 -12 10 -16 8 -24 -11z"/>
<path d="M1824 4167 c-9 -25 0 -62 16 -62 10 0 15 10 15 34 0 36 -21 54 -31
28z"/>
<path d="M2355 4160 c-8 -26 3 -60 20 -60 8 0 17 9 20 20 8 26 -3 60 -20 60
-8 0 -17 -9 -20 -20z"/>
<path d="M3074 4167 c-9 -25 0 -62 16 -62 10 0 15 10 15 34 0 36 -21 54 -31
28z"/>
<path d="M2534 3987 c-9 -25 0 -62 16 -62 10 0 15 10 15 34 0 36 -21 54 -31
28z"/>
<path d="M3240 3966 c0 -40 12 -53 30 -31 16 19 9 59 -12 63 -14 3 -18 -4 -18
-32z"/>
<path d="M2187 3823 c-4 -3 -7 -21 -7 -40 0 -23 5 -33 15 -33 20 0 29 23 21
55 -6 25 -17 31 -29 18z"/>
<path d="M2707 3824 c-4 -4 -7 -23 -7 -41 0 -27 4 -34 18 -31 12 2 17 13 17
37 0 33 -13 49 -28 35z"/>
<path d="M2884 3817 c-9 -25 0 -62 16 -62 10 0 15 10 15 34 0 36 -21 54 -31
28z"/>
<path d="M2180 3616 c0 -38 17 -57 31 -35 14 22 6 63 -13 67 -14 3 -18 -4 -18
-32z"/>
<path d="M2880 3616 c0 -38 17 -57 31 -35 14 22 6 63 -13 67 -14 3 -18 -4 -18
-32z"/>
<path d="M3235 3630 c-7 -23 2 -60 15 -60 15 0 31 40 25 60 -8 26 -32 26 -40
0z"/>
<path d="M2892 3468 c-16 -16 -15 -53 1 -67 19 -15 27 -4 27 35 0 37 -11 49
-28 32z"/>
<path d="M3060 3459 c-9 -16 -9 -28 0 -48 11 -25 12 -25 26 -6 18 24 18 49 0
64 -12 10 -17 8 -26 -10z"/>
<path d="M3247 3473 c-4 -3 -7 -21 -7 -38 0 -17 3 -35 7 -38 11 -11 33 14 33
38 0 24 -22 49 -33 38z"/>
<path d="M2990 2910 l0 -90 90 0 90 0 0 90 0 90 -90 0 -90 0 0 -90z m118 48
c16 -16 16 -80 0 -96 -18 -18 -56 -14 -68 7 -30 57 26 131 68 89z"/>
<path d="M3061 2932 c-13 -24 -3 -62 15 -62 19 0 28 24 20 55 -8 30 -21 32
-35 7z"/>
<path d="M2110 2380 l0 -90 85 0 85 0 0 90 0 90 -85 0 -85 0 0 -90z m118 48
c7 -7 12 -28 12 -48 0 -41 -14 -60 -47 -60 -24 0 -43 26 -43 60 0 51 47 79 78
48z"/>
<path d="M2187 2413 c-4 -3 -7 -21 -7 -40 0 -23 5 -33 15 -33 20 0 29 23 21
55 -6 25 -17 31 -29 18z"/>
<path d="M2990 2205 l0 -85 90 0 90 0 0 85 0 85 -90 0 -90 0 0 -85z m128 3 c5
-56 -38 -87 -72 -52 -22 22 -20 70 5 95 18 18 23 19 42 6 14 -9 23 -27 25 -49z"/>
<path d="M3054 2214 c-9 -35 16 -63 35 -40 16 20 6 66 -14 66 -8 0 -18 -12
-21 -26z"/>
<path d="M424 3287 c-9 -25 0 -62 16 -62 10 0 15 10 15 34 0 36 -21 54 -31 28z"/>
<path d="M1111 3282 c-14 -26 -3 -64 18 -60 11 2 16 14 16 37 0 39 -19 52 -34
23z"/>
<path d="M1824 3287 c-9 -25 0 -62 16 -62 10 0 15 10 15 34 0 36 -21 54 -31
28z"/>
<path d="M2524 3287 c-9 -25 0 -62 16 -62 10 0 15 10 15 34 0 36 -21 54 -31
28z"/>
<path d="M2695 3280 c-8 -26 3 -60 20 -60 8 0 17 9 20 20 8 26 -3 60 -20 60
-8 0 -17 -9 -20 -20z"/>
<path d="M1108 3102 c-6 -22 8 -62 21 -62 13 0 25 45 17 65 -8 21 -33 19 -38
-3z"/>
<path d="M1292 3118 c-16 -16 -15 -53 2 -67 21 -18 39 19 26 53 -11 30 -12 30
-28 14z"/>
<path d="M2007 3113 c-12 -11 -7 -50 7 -62 12 -10 17 -8 26 9 19 35 -8 79 -33
53z"/>
<path d="M3234 3107 c-9 -25 0 -62 16 -62 10 0 15 10 15 34 0 36 -21 54 -31
28z"/>
<path d="M764 2937 c-10 -27 0 -62 19 -65 16 -3 18 2 15 34 -3 39 -24 57 -34
31z"/>
<path d="M1111 2928 c-10 -29 -3 -58 15 -58 19 0 28 24 20 55 -8 31 -24 32
-35 3z"/>
<path d="M1471 2932 c-13 -24 -3 -62 15 -62 19 0 28 24 20 55 -8 30 -21 32
-35 7z"/>
<path d="M1657 2944 c-4 -4 -7 -23 -7 -41 0 -27 4 -34 18 -31 12 2 17 13 17
37 0 33 -13 49 -28 35z"/>
<path d="M2361 2936 c-16 -20 -6 -66 14 -66 21 0 31 48 13 66 -13 13 -16 13
-27 0z"/>
<path d="M2537 2944 c-4 -4 -7 -23 -7 -41 0 -27 4 -34 18 -31 12 2 17 13 17
37 0 33 -13 49 -28 35z"/>
<path d="M2704 2937 c-9 -25 0 -62 16 -62 10 0 15 10 15 34 0 36 -21 54 -31
28z"/>
<path d="M424 2757 c-9 -25 0 -62 16 -62 10 0 15 10 15 34 0 36 -21 54 -31 28z"/>
<path d="M1654 2757 c-9 -25 0 -62 16 -62 10 0 15 10 15 34 0 36 -21 54 -31
28z"/>
<path d="M1824 2757 c-9 -25 0 -62 16 -62 10 0 15 10 15 34 0 36 -21 54 -31
28z"/>
<path d="M2004 2755 c-8 -19 4 -65 16 -65 15 0 32 39 25 60 -7 24 -33 26 -41
5z"/>
<path d="M2355 2750 c-8 -26 3 -60 20 -60 8 0 17 9 20 20 8 26 -3 60 -20 60
-8 0 -17 -9 -20 -20z"/>
<path d="M3234 2757 c-9 -25 0 -62 16 -62 10 0 15 10 15 34 0 36 -21 54 -31
28z"/>
<path d="M3407 2748 c-6 -23 8 -58 23 -58 12 0 24 46 16 65 -8 22 -33 18 -39
-7z"/>
<path d="M424 2587 c-10 -27 0 -62 19 -65 16 -3 18 2 15 34 -3 39 -24 57 -34
31z"/>
<path d="M597 2593 c-4 -3 -7 -22 -7 -40 0 -27 4 -34 18 -31 21 4 28 50 9 66
-8 7 -17 9 -20 5z"/>
<path d="M772 2588 c-16 -16 -15 -53 1 -67 19 -15 27 -4 27 35 0 37 -11 49
-28 32z"/>
<path d="M942 2588 c-16 -16 -15 -53 2 -67 12 -10 17 -8 25 8 14 25 14 33 -2
54 -10 14 -15 15 -25 5z"/>
<path d="M2357 2593 c-4 -3 -7 -22 -7 -40 0 -27 4 -34 18 -31 21 4 28 50 9 66
-8 7 -17 9 -20 5z"/>
<path d="M2892 2588 c-16 -16 -15 -53 1 -67 19 -15 27 -4 27 35 0 37 -11 49
-28 32z"/>
<path d="M3950 2581 c-9 -18 -9 -29 0 -50 11 -25 12 -25 26 -6 18 24 18 36 0
60 -13 18 -14 18 -26 -4z"/>
<path d="M424 2407 c-9 -25 0 -62 16 -62 10 0 15 10 15 34 0 36 -21 54 -31 28z"/>
<path d="M594 2407 c-9 -25 0 -62 16 -62 10 0 15 10 15 34 0 36 -21 54 -31 28z"/>
<path d="M1285 2400 c-8 -26 3 -60 20 -60 15 0 25 32 18 60 -3 11 -11 20 -18
20 -8 0 -17 -9 -20 -20z"/>
<path d="M1824 2407 c-9 -25 0 -62 16 -62 10 0 15 10 15 34 0 36 -21 54 -31
28z"/>
<path d="M2534 2407 c-9 -25 0 -62 16 -62 10 0 15 10 15 34 0 36 -21 54 -31
28z"/>
<path d="M2704 2407 c-9 -25 0 -62 16 -62 10 0 15 10 15 34 0 36 -21 54 -31
28z"/>
<path d="M3414 2407 c-9 -25 0 -62 16 -62 10 0 15 10 15 34 0 36 -21 54 -31
28z"/>
<path d="M3765 2400 c-8 -26 3 -60 20 -60 8 0 17 9 20 20 8 26 -3 60 -20 60
-8 0 -17 -9 -20 -20z"/>
<path d="M4121 2402 c-14 -26 -3 -64 18 -60 11 2 16 14 16 37 0 39 -19 52 -34
23z"/>
<path d="M934 2214 c-4 -17 -1 -31 9 -41 13 -14 16 -13 27 6 13 26 5 61 -15
61 -8 0 -18 -12 -21 -26z"/>
<path d="M1465 2220 c-7 -21 10 -60 25 -60 12 0 24 46 16 65 -8 21 -34 19 -41
-5z"/>
<path d="M1824 2225 c-9 -22 5 -67 19 -62 7 2 13 20 15 40 2 28 0 37 -13 37
-8 0 -18 -7 -21 -15z"/>
<path d="M2004 2225 c-8 -19 4 -65 16 -65 15 0 32 39 25 60 -7 24 -33 26 -41
5z"/>
<path d="M2704 2225 c-8 -20 4 -65 17 -65 13 0 27 40 21 62 -5 22 -30 24 -38
3z"/>
<path d="M3585 2220 c-3 -10 -1 -29 5 -41 11 -19 14 -20 27 -6 10 10 13 24 9
41 -8 31 -32 34 -41 6z"/>
<path d="M3942 2203 c4 -51 33 -54 33 -3 0 26 -5 36 -18 38 -16 3 -18 -2 -15
-35z"/>
<path d="M4114 2214 c-9 -35 16 -63 35 -40 16 20 6 66 -14 66 -8 0 -18 -12
-21 -26z"/>
<path d="M424 2057 c-9 -25 0 -62 16 -62 10 0 15 10 15 34 0 36 -21 54 -31 28z"/>
<path d="M1111 2052 c-13 -24 -3 -62 15 -62 19 0 28 24 20 55 -8 30 -21 32
-35 7z"/>
<path d="M1657 2064 c-4 -4 -7 -23 -7 -41 0 -27 4 -34 18 -31 12 2 17 13 17
37 0 33 -13 49 -28 35z"/>
<path d="M2004 2045 c-8 -31 1 -55 20 -55 20 0 29 35 16 60 -14 27 -28 25 -36
-5z"/>
<path d="M2530 2050 c-14 -27 -3 -62 18 -58 22 4 27 51 8 67 -12 10 -17 8 -26
-9z"/>
<path d="M2884 2057 c-9 -25 0 -62 16 -62 10 0 15 10 15 34 0 36 -21 54 -31
28z"/>
<path d="M3590 2051 c-13 -26 -5 -61 15 -61 22 0 31 49 12 67 -13 14 -16 13
-27 -6z"/>
<path d="M3764 2057 c-10 -27 0 -62 19 -65 16 -3 18 2 15 34 -3 39 -24 57 -34
31z"/>
<path d="M424 1877 c-9 -25 0 -62 16 -62 10 0 15 10 15 34 0 36 -21 54 -31 28z"/>
<path d="M1107 1869 c-7 -26 10 -62 26 -56 19 6 15 71 -4 75 -10 2 -19 -6 -22
-19z"/>
<path d="M1285 1870 c-7 -23 2 -60 15 -60 15 0 29 35 23 58 -7 28 -30 28 -38
2z"/>
<path d="M1824 1877 c-9 -25 0 -62 16 -62 10 0 15 10 15 34 0 36 -21 54 -31
28z"/>
<path d="M2004 1875 c-8 -19 4 -65 16 -65 15 0 32 39 25 60 -7 24 -33 26 -41
5z"/>
<path d="M2525 1870 c-6 -20 10 -60 25 -60 13 0 22 37 15 60 -8 26 -32 26 -40
0z"/>
<path d="M2704 1876 c-9 -25 0 -61 16 -61 10 0 16 12 18 38 2 28 0 37 -13 37
-8 0 -18 -6 -21 -14z"/>
<path d="M3234 1876 c-9 -25 0 -61 16 -61 10 0 16 12 18 38 2 28 0 37 -13 37
-8 0 -18 -6 -21 -14z"/>
<path d="M3414 1877 c-9 -25 0 -62 16 -62 10 0 15 10 15 34 0 36 -21 54 -31
28z"/>
<path d="M3584 1865 c-6 -24 9 -55 27 -55 12 0 21 38 14 60 -9 28 -33 25 -41
-5z"/>
<path d="M3944 1877 c-9 -25 0 -62 16 -62 10 0 15 10 15 34 0 36 -21 54 -31
28z"/>
<path d="M3520 1500 l0 -90 85 0 85 0 0 90 0 90 -85 0 -85 0 0 -90z m118 48
c16 -16 16 -80 0 -96 -7 -7 -21 -12 -33 -12 -12 0 -26 5 -33 12 -15 15 -16 63
-2 89 12 21 50 25 68 7z"/>
<path d="M3586 1516 c-7 -30 2 -56 19 -56 17 0 28 34 20 60 -9 28 -32 25 -39
-4z"/>
<path d="M2012 1708 c-16 -16 -15 -53 2 -67 12 -10 17 -8 25 8 14 25 14 33 -2
54 -10 14 -15 15 -25 5z"/>
<path d="M2712 1708 c-17 -17 -15 -53 3 -68 12 -10 16 -8 23 11 15 40 -3 80
-26 57z"/>
<path d="M3060 1699 c-17 -30 3 -77 25 -59 19 16 19 54 1 69 -12 10 -17 8 -26
-10z"/>
<path d="M3947 1713 c-4 -3 -7 -21 -7 -38 0 -17 3 -35 7 -38 11 -11 33 14 33
38 0 24 -22 49 -33 38z"/>
<path d="M4122 1708 c-16 -16 -15 -53 2 -67 12 -10 17 -8 25 8 15 26 14 46 -2
60 -10 8 -17 7 -25 -1z"/>
<path d="M2354 1527 c-9 -25 0 -62 16 -62 10 0 15 10 15 34 0 36 -21 54 -31
28z"/>
<path d="M2704 1527 c-10 -27 0 -62 19 -65 16 -3 18 2 15 34 -3 39 -24 57 -34
31z"/>
<path d="M2884 1527 c-9 -25 0 -62 16 -62 10 0 15 10 15 34 0 36 -21 54 -31
28z"/>
<path d="M3944 1527 c-9 -25 0 -62 16 -62 10 0 15 10 15 34 0 36 -21 54 -31
28z"/>
<path d="M4294 1527 c-9 -25 0 -62 16 -62 10 0 15 10 15 34 0 36 -21 54 -31
28z"/>
<path d="M4474 1527 c-9 -25 0 -62 16 -62 10 0 15 10 15 34 0 36 -21 54 -31
28z"/>
<path d="M2007 1353 c-12 -11 -7 -50 7 -62 12 -10 17 -8 26 9 19 35 -8 79 -33
53z"/>
<path d="M2187 1363 c-4 -3 -7 -21 -7 -38 0 -17 3 -35 7 -38 11 -11 33 14 33
38 0 24 -22 49 -33 38z"/>
<path d="M2352 1323 c4 -51 33 -54 33 -3 0 26 -5 36 -18 38 -16 3 -18 -2 -15
-35z"/>
<path d="M3054 1347 c-9 -25 0 -62 16 -62 10 0 15 10 15 34 0 36 -21 54 -31
28z"/>
<path d="M3934 1345 c-8 -20 4 -65 17 -65 13 0 27 40 21 62 -5 22 -30 24 -38
3z"/>
<path d="M1824 1177 c-10 -27 0 -62 19 -65 16 -3 18 2 15 34 -3 39 -24 57 -34
31z"/>
<path d="M2357 1184 c-4 -4 -7 -23 -7 -41 0 -27 4 -34 18 -31 12 2 17 13 17
37 0 33 -13 49 -28 35z"/>
<path d="M3060 1175 c-17 -21 -4 -67 18 -63 22 4 28 51 9 66 -11 10 -17 9 -27
-3z"/>
<path d="M3234 1166 c-8 -33 1 -56 21 -56 13 0 15 9 13 37 -4 43 -25 55 -34
19z"/>
<path d="M3417 1184 c-4 -4 -7 -23 -7 -41 0 -27 4 -34 18 -31 12 2 17 13 17
37 0 33 -13 49 -28 35z"/>
<path d="M3947 1184 c-4 -4 -7 -23 -7 -41 0 -27 4 -34 18 -31 12 2 17 13 17
37 0 33 -13 49 -28 35z"/>
<path d="M4294 1166 c-8 -33 1 -56 21 -56 13 0 15 9 13 37 -4 43 -25 55 -34
19z"/>
<path d="M4477 1184 c-4 -4 -7 -23 -7 -41 0 -27 4 -34 18 -31 12 2 17 13 17
37 0 33 -13 49 -28 35z"/>
<path d="M4644 1165 c-8 -31 1 -55 20 -55 18 0 25 29 15 58 -11 29 -27 28 -35
-3z"/>
<path d="M1824 997 c-9 -25 0 -62 16 -62 10 0 15 10 15 34 0 36 -21 54 -31 28z"/>
<path d="M2004 995 c-8 -19 4 -65 16 -65 15 0 32 39 25 60 -7 24 -33 26 -41 5z"/>
<path d="M2524 996 c-9 -25 0 -61 16 -61 10 0 16 12 18 38 2 28 0 37 -13 37
-8 0 -18 -6 -21 -14z"/>
<path d="M2704 997 c-9 -25 0 -62 16 -62 10 0 15 10 15 34 0 36 -21 54 -31 28z"/>
<path d="M3405 990 c-8 -26 3 -60 20 -60 17 0 28 34 20 60 -3 11 -12 20 -20
20 -8 0 -17 -9 -20 -20z"/>
<path d="M3940 976 c0 -38 17 -57 31 -35 14 22 6 63 -13 67 -14 3 -18 -4 -18
-32z"/>
<path d="M4114 995 c-8 -19 4 -65 16 -65 15 0 29 35 23 58 -6 25 -31 29 -39 7z"/>
<path d="M4644 997 c-9 -25 0 -62 16 -62 10 0 15 10 15 34 0 36 -21 54 -31 28z"/>
<path d="M1832 828 c-16 -16 -15 -53 1 -67 19 -15 27 -4 27 35 0 37 -11 49
-28 32z"/>
<path d="M2012 828 c-16 -16 -15 -53 2 -67 12 -10 17 -8 25 8 14 25 14 33 -2
54 -10 14 -15 15 -25 5z"/>
<path d="M2187 833 c-4 -3 -7 -21 -7 -38 0 -17 3 -35 7 -38 11 -11 33 14 33
38 0 24 -22 49 -33 38z"/>
<path d="M2882 828 c-17 -17 -15 -53 3 -68 12 -10 16 -8 23 11 15 40 -3 80
-26 57z"/>
<path d="M4290 819 c-17 -30 3 -77 25 -59 19 16 19 54 1 69 -12 10 -17 8 -26
-10z"/>
<path d="M4647 833 c-4 -3 -7 -21 -7 -38 0 -17 3 -35 7 -38 11 -11 33 14 33
38 0 24 -22 49 -33 38z"/>
<path d="M2524 636 c-8 -32 2 -59 19 -53 16 5 16 69 0 74 -7 3 -15 -7 -19 -21z"/>
<path d="M3054 647 c-9 -25 0 -62 16 -62 10 0 15 10 15 34 0 36 -21 54 -31 28z"/>
<path d="M3225 640 c-8 -26 3 -60 20 -60 8 0 17 9 20 20 8 26 -3 60 -20 60 -8
0 -17 -9 -20 -20z"/>
<path d="M3755 640 c-8 -26 3 -60 20 -60 17 0 26 26 19 56 -7 29 -30 32 -39 4z"/>
<path d="M3934 647 c-9 -25 0 -62 16 -62 10 0 15 10 15 34 0 36 -21 54 -31 28z"/>
<path d="M4117 653 c-4 -3 -7 -21 -7 -40 0 -23 5 -33 15 -33 20 0 29 23 21 55
-6 25 -17 31 -29 18z"/>
<path d="M4635 640 c-8 -26 3 -60 20 -60 8 0 17 9 20 20 8 26 -3 60 -20 60 -8
0 -17 -9 -20 -20z"/>
<path d="M1824 466 c-9 -25 0 -61 16 -61 10 0 16 12 18 38 2 28 0 37 -13 37
-8 0 -18 -6 -21 -14z"/>
<path d="M2524 465 c-9 -22 5 -67 19 -62 7 2 13 20 15 40 2 28 0 37 -13 37 -8
0 -18 -7 -21 -15z"/>
<path d="M3760 446 c0 -38 17 -57 31 -35 14 22 6 63 -13 67 -14 3 -18 -4 -18
-32z"/>
<path d="M3934 454 c-9 -35 16 -63 35 -40 16 20 6 66 -14 66 -8 0 -18 -12 -21
-26z"/>
<path d="M4467 473 c-12 -11 -7 -50 7 -62 12 -10 17 -8 26 9 19 35 -8 79 -33
53z"/>
<path d="M4644 467 c-9 -25 0 -62 16 -62 10 0 15 10 15 34 0 36 -21 54 -31 28z"/>
<path d="M3520 4145 l0 -615 615 0 615 0 0 615 0 615 -615 0 -615 0 0 -615z
m110 539 c0 -33 5 -51 18 -60 15 -12 12 -13 -25 -14 -24 0 -43 5 -43 10 0 6 7
10 15 10 21 0 21 68 -1 77 -13 5 -13 7 -2 14 29 19 38 9 38 -37z m180 -4 c0
-27 5 -50 10 -50 6 0 10 -4 10 -10 0 -5 -16 -10 -35 -10 -36 0 -47 13 -20 24
21 8 20 62 -2 70 -15 6 -15 8 -3 16 31 20 40 11 40 -40z m196 25 c13 -20 15
-33 7 -58 -8 -28 -13 -32 -43 -32 -30 0 -35 4 -43 32 -12 39 12 83 43 83 11 0
27 -11 36 -25z m174 6 c14 -26 13 -74 -2 -89 -33 -33 -78 -2 -78 52 0 49 59
76 80 37z m158 -34 c2 -26 7 -47 13 -47 5 0 9 -4 9 -10 0 -5 -16 -10 -35 -10
-19 0 -35 5 -35 10 0 6 7 10 15 10 21 0 21 68 -1 77 -13 5 -13 7 -2 14 23 15
33 3 36 -44z m199 22 c19 -39 3 -83 -31 -87 -36 -4 -48 7 -49 51 -2 65 54 91
80 36z m167 15 c19 -18 21 -75 4 -92 -7 -7 -21 -12 -33 -12 -29 0 -45 19 -45
53 0 60 39 87 74 51z m-124 -569 l0 -445 -442 2 -443 3 -3 430 c-1 237 0 436
3 443 3 9 102 12 445 12 l440 0 0 -445z m-950 355 c0 -27 5 -50 10 -50 6 0 10
-4 10 -10 0 -5 -16 -10 -35 -10 -19 0 -35 5 -35 10 0 6 7 10 15 10 11 0 15 11
15 40 0 30 -4 40 -16 40 -8 0 -12 5 -9 10 3 6 15 10 26 10 16 0 19 -7 19 -50z
m1084 19 c20 -58 -28 -113 -69 -79 -18 15 -20 81 -3 98 21 21 62 10 72 -19z
m-1070 -155 c26 -25 20 -81 -9 -100 -24 -16 -27 -16 -45 1 -36 33 -18 115 25
115 7 0 21 -7 29 -16z m1046 -44 c0 -29 5 -50 13 -53 6 -3 -8 -5 -33 -6 -37 0
-41 2 -22 9 17 7 22 17 22 45 0 24 -4 35 -15 35 -21 0 -19 18 3 23 28 6 32 -1
32 -53z m-1042 -132 c16 -16 16 -80 0 -96 -31 -31 -78 -3 -78 48 0 51 47 79
78 48z m1062 -7 c14 -26 13 -74 -2 -89 -7 -7 -21 -12 -33 -12 -12 0 -26 5 -33
12 -16 16 -16 80 0 96 18 18 56 14 68 -7z m-1063 -258 c14 -11 10 -13 -28 -13
-35 1 -40 3 -26 11 18 11 25 79 7 79 -17 0 -11 18 8 22 14 3 18 -5 20 -42 2
-27 9 -50 19 -57z m1071 45 c3 -37 -17 -68 -43 -68 -45 0 -62 87 -23 114 31
22 62 1 66 -46z m-1070 -130 c13 -13 16 -66 6 -92 -9 -23 -61 -21 -74 3 -30
57 26 131 68 89z m1042 -34 c0 -33 5 -51 18 -60 15 -12 12 -13 -25 -14 -24 0
-43 5 -43 10 0 6 7 10 15 10 22 0 20 69 -2 77 -15 6 -15 7 3 14 32 13 34 11
34 -37z m-1042 -146 c15 -15 16 -63 2 -89 -6 -11 -21 -19 -35 -19 -28 0 -45
26 -45 67 0 34 16 53 45 53 12 0 26 -5 33 -12z m162 -38 c0 -27 5 -50 10 -50
6 0 10 -4 10 -10 0 -5 -16 -10 -35 -10 -19 0 -35 5 -35 10 0 6 5 10 10 10 6 0
10 18 10 40 0 22 -5 40 -11 40 -5 0 -7 5 -4 10 3 6 15 10 26 10 16 0 19 -7 19
-50z m170 0 c0 -38 4 -50 15 -50 8 0 15 -4 15 -10 0 -5 -18 -10 -40 -10 -22 0
-40 5 -40 10 0 6 7 10 15 10 11 0 15 11 15 40 0 22 -4 40 -10 40 -5 0 -10 5
-10 10 0 6 9 10 20 10 17 0 20 -7 20 -50z m204 18 c21 -61 -37 -119 -71 -72
-16 23 -17 76 -1 92 22 22 62 10 72 -20z m178 7 c14 -30 2 -72 -24 -89 -38
-24 -69 29 -54 90 9 35 62 34 78 -1z m148 -25 c0 -39 4 -50 16 -50 8 0 12 -4
9 -10 -3 -5 -19 -10 -35 -10 -16 0 -32 5 -35 10 -3 6 1 10 9 10 12 0 16 10 16
40 0 22 -4 40 -10 40 -5 0 -10 5 -10 10 0 6 9 10 20 10 17 0 20 -7 20 -50z
m204 19 c20 -58 -28 -113 -69 -79 -18 15 -20 81 -3 98 21 21 62 10 72 -19z"/>
<path d="M3954 4697 c-9 -25 0 -62 16 -62 10 0 15 10 15 34 0 36 -21 54 -31
28z"/>
<path d="M4130 4690 c-13 -25 -4 -60 16 -60 19 0 28 24 20 55 -8 30 -22 32
-36 5z"/>
<path d="M4484 4697 c-9 -25 0 -62 16 -62 10 0 15 10 15 34 0 36 -21 54 -31
28z"/>
<path d="M4660 4695 c-15 -18 -5 -65 15 -65 19 0 28 35 15 60 -13 24 -14 24
-30 5z"/>
<path d="M3870 4145 l0 -265 265 0 265 0 0 265 0 265 -265 0 -265 0 0 -265z
m121 225 c27 -15 27 -95 0 -110 -52 -27 -92 45 -55 98 17 25 27 27 55 12z
m169 -44 c0 -34 5 -56 13 -59 6 -3 -6 -6 -28 -6 -32 0 -36 2 -22 10 22 13 24
79 2 79 -34 0 -12 23 28 29 4 0 7 -23 7 -53z m199 23 c28 -50 -13 -113 -59
-89 -27 14 -29 94 -2 109 25 15 44 9 61 -20z m-379 -199 c0 -38 4 -50 15 -50
8 0 15 -4 15 -10 0 -5 -18 -10 -40 -10 -22 0 -40 5 -40 10 0 6 7 10 15 10 11
0 15 11 15 40 0 22 -5 40 -11 40 -5 0 -7 5 -4 10 3 6 13 10 21 10 10 0 14 -13
14 -50z m180 4 c0 -33 5 -51 18 -60 15 -12 12 -13 -25 -14 -24 0 -43 5 -43 10
0 6 7 10 15 10 11 0 15 11 15 40 0 31 -4 40 -17 40 -15 0 -16 2 -3 10 31 20
40 11 40 -36z m204 14 c20 -58 -28 -112 -70 -78 -17 15 -19 81 -2 98 22 22 62
10 72 -20z m-369 -152 c37 -27 18 -116 -25 -116 -43 0 -62 89 -25 116 10 8 22
14 25 14 3 0 15 -6 25 -14z m355 -6 c24 -24 26 -67 3 -92 -20 -22 -37 -23 -57
-2 -30 30 -12 114 25 114 5 0 18 -9 29 -20z m-190 -35 c0 -31 5 -47 18 -54 13
-8 7 -10 -28 -10 -35 0 -41 2 -27 10 18 11 25 79 7 79 -5 0 -10 5 -10 10 0 6
9 10 20 10 17 0 20 -7 20 -45z"/>
<path d="M3957 4353 c-4 -3 -7 -21 -7 -38 0 -17 3 -35 7 -38 11 -11 33 14 33
38 0 24 -22 49 -33 38z"/>
<path d="M4304 4334 c-7 -28 6 -61 22 -56 14 3 11 75 -3 79 -7 3 -15 -8 -19
-23z"/>
<path d="M4305 4160 c-8 -26 3 -60 20 -60 17 0 26 39 14 62 -13 24 -26 23 -34
-2z"/>
<path d="M3954 3987 c-9 -25 0 -62 16 -62 10 0 15 10 15 34 0 36 -21 54 -31
28z"/>
<path d="M4304 3985 c-8 -20 4 -65 17 -65 13 0 27 40 21 62 -5 22 -30 24 -38
3z"/>
<path d="M4654 4515 c-9 -22 5 -67 19 -62 7 2 13 20 15 40 2 28 0 37 -13 37
-8 0 -18 -7 -21 -15z"/>
<path d="M3600 4341 c-9 -18 -9 -29 0 -50 11 -25 12 -25 26 -6 18 24 18 36 0
60 -13 18 -14 18 -26 -4z"/>
<path d="M3607 4173 c-14 -13 -7 -73 7 -73 18 0 30 33 21 60 -6 20 -16 25 -28
13z"/>
<path d="M4655 4160 c-8 -26 3 -60 20 -60 17 0 26 26 19 56 -7 29 -30 32 -39
4z"/>
<path d="M4654 3974 c-4 -17 -1 -31 9 -41 13 -14 16 -13 27 6 13 26 5 61 -15
61 -8 0 -18 -12 -21 -26z"/>
<path d="M3607 3824 c-4 -4 -7 -23 -7 -41 0 -27 4 -34 18 -31 12 2 17 13 17
37 0 33 -13 49 -28 35z"/>
<path d="M3596 3634 c-9 -22 4 -64 19 -64 15 0 28 42 19 64 -3 9 -12 16 -19
16 -7 0 -16 -7 -19 -16z"/>
<path d="M4125 3630 c-8 -26 3 -60 20 -60 8 0 17 9 20 20 8 26 -3 60 -20 60
-8 0 -17 -9 -20 -20z"/>
<path d="M4304 3637 c-9 -25 0 -62 16 -62 10 0 15 10 15 34 0 36 -21 54 -31
28z"/>
<path d="M4654 3635 c-9 -22 5 -67 19 -62 7 2 13 20 15 40 2 28 0 37 -13 37
-8 0 -18 -7 -21 -15z"/>
<path d="M1760 3705 l0 -175 85 0 85 0 0 175 0 175 -85 0 -85 0 0 -175z m119
113 c22 -39 5 -82 -33 -86 -34 -4 -46 10 -46 59 0 62 50 80 79 27z m-27 -196
c-3 -31 1 -44 12 -48 9 -3 16 -10 16 -15 0 -12 -67 -11 -75 1 -3 6 1 10 9 10
12 0 16 10 16 40 0 22 -5 40 -11 40 -5 0 -7 5 -4 11 4 5 14 9 23 7 13 -2 16
-13 14 -46z"/>
<path d="M1824 3817 c-10 -27 0 -62 19 -65 16 -3 18 2 15 34 -3 39 -24 57 -34
31z"/>
<path d="M3700 3175 l0 -175 85 0 85 0 0 -90 0 -90 175 0 175 0 0 90 0 90
-175 0 -175 0 0 175 0 175 -85 0 -85 0 0 -175z m118 133 c16 -16 16 -80 0 -96
-19 -19 -46 -14 -64 13 -33 51 23 124 64 83z m-18 -217 c0 -30 5 -51 13 -54 6
-3 -6 -6 -28 -6 -32 0 -36 2 -22 10 23 13 24 79 1 79 -8 0 -12 5 -9 10 3 6 15
10 26 10 16 0 19 -7 19 -49z m180 -167 c0 -33 5 -51 18 -60 15 -12 12 -13 -25
-14 -24 0 -43 5 -43 10 0 6 7 10 15 10 21 0 21 68 -1 77 -13 5 -13 7 -2 14 29
19 38 9 38 -37z m199 14 c30 -53 -21 -114 -65 -78 -17 15 -19 81 -2 98 19 19
51 10 67 -20z"/>
<path d="M3774 3287 c-9 -25 0 -62 16 -62 10 0 15 10 15 34 0 36 -21 54 -31
28z"/>
<path d="M4124 2926 c-8 -33 1 -56 21 -56 13 0 15 9 13 37 -4 43 -25 55 -34
19z"/>
<path d="M4050 3265 l0 -85 88 0 87 0 0 85 0 85 -87 0 -88 0 0 -85z m134 17
c12 -43 -5 -82 -37 -82 -33 0 -47 18 -47 60 0 43 16 62 50 58 18 -2 27 -12 34
-36z"/>
<path d="M4124 3286 c-10 -25 0 -61 19 -64 14 -3 17 4 17 37 0 30 -4 41 -15
41 -9 0 -18 -6 -21 -14z"/>
<path d="M4400 3085 l0 -265 90 0 90 0 0 -85 0 -85 -175 0 -175 0 0 -90 0 -90
85 0 85 0 0 -175 0 -175 90 0 90 0 0 -90 0 -90 85 0 85 0 0 175 0 175 -85 0
-85 0 0 90 0 90 85 0 85 0 0 265 0 265 -85 0 -85 0 0 175 0 175 -90 0 -90 0 0
-265z m110 185 c0 -39 4 -50 16 -50 8 0 12 -4 9 -10 -3 -5 -22 -10 -41 -10
-19 0 -34 5 -34 10 0 6 7 10 15 10 11 0 15 11 15 40 0 22 -4 40 -10 40 -5 0
-10 5 -10 10 0 6 9 10 20 10 17 0 20 -7 20 -50z m-8 -172 c-3 -32 0 -45 14
-55 16 -11 13 -13 -27 -13 -35 1 -40 3 -26 11 18 11 25 79 7 79 -5 0 -10 5
-10 10 0 6 10 10 23 10 20 0 22 -4 19 -42z m28 -147 c14 -26 13 -74 -2 -89
-33 -33 -78 -2 -78 52 0 49 59 76 80 37z m150 -31 c0 -38 4 -50 15 -50 8 0 15
-4 15 -10 0 -5 -19 -10 -42 -10 -38 1 -41 2 -25 14 18 14 26 92 7 81 -5 -3
-10 -2 -10 4 0 9 15 18 33 20 4 1 7 -21 7 -49z m-10 -175 c0 -31 5 -47 15 -51
8 -4 15 -10 15 -15 0 -12 -67 -11 -75 1 -3 6 1 10 9 10 12 0 16 10 16 40 0 22
-5 40 -11 40 -5 0 -7 5 -4 10 3 6 13 10 21 10 10 0 14 -13 14 -45z m-340 -175
c0 -36 5 -52 18 -59 13 -8 7 -10 -28 -10 -35 0 -41 2 -27 10 20 12 24 75 5 82
-10 4 -9 8 2 16 26 18 30 13 30 -39z m180 -4 c0 -34 5 -56 13 -59 6 -3 -6 -6
-28 -6 -32 0 -36 2 -22 10 22 13 24 79 2 79 -34 0 -12 23 28 29 4 0 7 -23 7
-53z m185 40 c37 -26 16 -116 -27 -116 -17 0 -48 41 -48 63 0 27 26 67 44 67
7 0 21 -6 31 -14z m-195 -211 c0 -31 5 -47 15 -51 29 -12 14 -24 -27 -24 -38
1 -41 2 -25 14 19 15 24 86 6 86 -5 0 -7 5 -4 10 3 6 13 10 21 10 10 0 14 -13
14 -45z m14 -141 c19 -18 21 -85 4 -102 -19 -19 -45 -14 -62 10 -22 31 -20 64
4 88 24 24 34 25 54 4z m176 -4 c26 -26 26 -72 0 -95 -17 -15 -24 -16 -45 -7
-21 10 -25 19 -25 51 0 37 19 71 41 71 5 0 18 -9 29 -20z m-10 -210 c0 -27 5
-50 10 -50 6 0 10 -4 10 -10 0 -5 -16 -10 -35 -10 -36 0 -47 13 -20 24 20 7
20 65 -1 73 -13 5 -13 7 -2 14 29 19 38 9 38 -41z"/>
<path d="M4480 2930 c-14 -27 -3 -62 18 -58 22 4 27 51 8 67 -12 10 -17 8 -26
-9z"/>
<path d="M4657 2593 c-4 -3 -7 -21 -7 -38 0 -17 3 -35 7 -38 11 -11 33 14 33
38 0 24 -22 49 -33 38z"/>
<path d="M4470 2206 c0 -38 17 -57 31 -35 14 22 6 63 -13 67 -14 3 -18 -4 -18
-32z"/>
<path d="M4644 2225 c-8 -20 4 -65 17 -65 13 0 27 40 21 62 -5 22 -30 24 -38
3z"/>
<path d="M350 975 l0 -615 615 0 615 0 0 615 0 615 -615 0 -615 0 0 -615z
m100 535 c0 -38 4 -50 15 -50 8 0 15 -4 15 -10 0 -5 -18 -10 -40 -10 -22 0
-40 5 -40 10 0 6 7 10 15 10 11 0 15 11 15 40 0 22 -5 40 -11 40 -5 0 -7 5 -4
10 3 6 13 10 21 10 10 0 14 -13 14 -50z m198 18 c19 -41 -2 -83 -43 -83 -24 0
-31 5 -38 32 -20 69 51 113 81 51z m168 7 c34 -53 -16 -122 -62 -85 -17 15
-19 81 -2 98 19 19 46 14 64 -13z m154 -25 c0 -27 5 -50 10 -50 6 0 10 -4 10
-10 0 -5 -16 -10 -35 -10 -19 0 -35 5 -35 10 0 6 7 10 15 10 21 0 21 68 0 76
-20 8 -9 24 16 24 16 0 19 -7 19 -50z m188 38 c16 -16 16 -80 0 -96 -31 -31
-78 -3 -78 48 0 51 47 79 78 48z m186 -20 c20 -58 -28 -112 -70 -78 -17 15
-19 81 -2 98 22 22 62 10 72 -20z m174 20 c7 -7 12 -28 12 -48 0 -41 -14 -60
-47 -60 -24 0 -43 26 -43 60 0 51 47 79 78 48z m-108 -578 l0 -440 -445 0
-445 0 0 440 0 440 445 0 445 0 0 -440z m-960 365 c0 -31 5 -47 18 -54 13 -8
7 -10 -28 -10 -25 1 -37 3 -27 6 12 3 17 15 17 44 0 21 -4 39 -10 39 -5 0 -10
5 -10 10 0 6 9 10 20 10 17 0 20 -7 20 -45z m1050 0 c0 -31 5 -47 18 -54 13
-8 7 -10 -28 -10 -35 0 -41 2 -27 10 23 13 24 79 1 79 -8 0 -12 5 -9 10 3 6
15 10 26 10 16 0 19 -7 19 -45z m-1022 -158 c9 -19 11 -36 4 -55 -7 -22 -15
-27 -42 -27 -30 0 -35 4 -43 32 -20 69 51 113 81 50z m1022 -13 c0 -33 5 -51
18 -60 15 -12 12 -13 -25 -14 -24 0 -43 5 -43 10 0 6 7 10 15 10 22 0 20 66
-2 74 -15 6 -15 8 -3 16 31 20 40 11 40 -36z m-1050 -179 c0 -31 5 -47 15 -51
8 -4 15 -10 15 -15 0 -12 -67 -11 -75 1 -3 6 1 10 9 10 12 0 16 10 16 40 0 22
-5 40 -11 40 -5 0 -7 5 -4 10 3 6 13 10 21 10 10 0 14 -13 14 -45z m1050 -5
c0 -39 4 -50 16 -50 8 0 12 -4 9 -10 -3 -5 -22 -10 -41 -10 -19 0 -34 5 -34
10 0 6 7 10 15 10 11 0 15 11 15 40 0 30 -4 40 -16 40 -8 0 -12 5 -9 10 3 6
15 10 26 10 16 0 19 -7 19 -50z m-1033 -227 c14 -11 10 -13 -28 -12 -24 1 -36
3 -26 6 12 3 17 15 17 44 0 21 -4 39 -10 39 -17 0 -11 18 8 22 14 3 18 -5 20
-42 2 -27 9 -50 19 -57z m1047 91 c31 -31 12 -114 -26 -114 -42 0 -63 77 -31
112 20 22 37 23 57 2z m-1064 -214 c0 -38 4 -50 15 -50 8 0 15 -4 15 -10 0 -5
-18 -10 -40 -10 -22 0 -40 5 -40 10 0 6 7 10 15 10 11 0 15 11 15 40 0 22 -5
40 -11 40 -5 0 -7 5 -4 10 3 6 13 10 21 10 10 0 14 -13 14 -50z m1050 0 c0
-38 4 -50 15 -50 8 0 15 -4 15 -10 0 -5 -18 -10 -40 -10 -22 0 -40 5 -40 10 0
6 7 10 15 10 11 0 15 11 15 40 0 31 -4 40 -17 40 -15 0 -16 2 -3 10 31 20 40
11 40 -40z m-1015 -170 c9 -40 -17 -83 -48 -78 -48 7 -58 101 -13 118 30 11
53 -5 61 -40z m152 -57 c14 -11 10 -13 -28 -12 -24 1 -36 3 -26 6 12 3 17 15
17 44 0 21 -4 39 -10 39 -17 0 -11 18 8 22 14 3 18 -5 20 -42 2 -27 9 -50 19
-57z m163 47 c0 -29 5 -50 13 -53 6 -3 -8 -5 -33 -5 -25 0 -37 2 -27 5 12 3
17 15 17 44 0 21 -4 39 -10 39 -17 0 -11 18 8 23 28 6 32 -1 32 -53z m198 -2
c3 -37 -17 -68 -43 -68 -45 0 -62 87 -23 114 31 22 62 1 66 -46z m156 46 c31
-31 14 -114 -24 -114 -23 0 -50 36 -50 67 0 23 32 63 49 63 5 0 17 -7 25 -16z
m194 -46 c3 -37 -17 -68 -43 -68 -45 0 -62 87 -23 114 31 22 62 1 66 -46z
m152 7 c0 -31 5 -47 18 -54 13 -8 7 -10 -28 -10 -35 0 -41 2 -27 10 23 13 24
79 1 79 -8 0 -12 5 -9 10 3 6 15 10 26 10 16 0 19 -7 19 -45z"/>
<path d="M594 1527 c-9 -25 0 -62 16 -62 10 0 15 10 15 34 0 36 -21 54 -31 28z"/>
<path d="M764 1527 c-9 -25 0 -62 16 -62 10 0 15 10 15 34 0 36 -21 54 -31 28z"/>
<path d="M1111 1519 c-11 -31 -2 -61 18 -57 11 2 16 14 16 37 0 40 -21 53 -34
20z"/>
<path d="M1285 1520 c-8 -26 3 -60 20 -60 15 0 25 32 18 60 -3 11 -11 20 -18
20 -8 0 -17 -9 -20 -20z"/>
<path d="M1471 1522 c-13 -24 -3 -62 15 -62 19 0 28 24 20 55 -8 30 -21 32
-35 7z"/>
<path d="M700 975 l0 -265 265 0 265 0 -2 263 -3 262 -262 3 -263 2 0 -265z
m98 182 c2 -26 7 -47 13 -47 5 0 9 -4 9 -10 0 -5 -16 -10 -35 -10 -19 0 -35 5
-35 10 0 6 5 10 10 10 15 0 12 67 -2 73 -10 4 -9 8 2 16 25 18 35 7 38 -42z
m172 3 c0 -27 5 -50 10 -50 6 0 10 -4 10 -10 0 -5 -16 -10 -35 -10 -19 0 -35
5 -35 10 0 6 7 10 15 10 21 0 21 68 -1 77 -13 5 -13 7 -2 14 29 19 38 9 38
-41z m188 38 c7 -7 12 -28 12 -48 0 -41 -14 -60 -47 -60 -40 0 -56 57 -27 98
17 24 43 29 62 10z m-334 -201 c19 -52 -32 -107 -69 -77 -18 15 -20 81 -3 98
22 22 62 10 72 -21z m164 21 c15 -15 16 -63 2 -89 -6 -11 -21 -19 -35 -19 -28
0 -45 26 -45 67 0 34 16 53 45 53 12 0 26 -5 33 -12z m152 -38 c0 -39 4 -50
16 -50 8 0 12 -4 9 -10 -3 -5 -22 -10 -41 -10 -19 0 -34 5 -34 10 0 6 7 10 15
10 11 0 15 11 15 40 0 30 -4 40 -16 40 -8 0 -12 5 -9 10 3 6 15 10 26 10 16 0
19 -7 19 -50z m-321 -151 c28 -50 -13 -113 -59 -89 -27 14 -29 94 -2 109 25
15 44 9 61 -20z m165 15 c30 -30 10 -114 -27 -114 -41 0 -62 77 -30 112 20 22
37 23 57 2z m156 -34 c0 -36 5 -52 18 -59 13 -8 7 -10 -28 -10 -35 0 -41 2
-27 10 20 12 24 75 5 82 -10 4 -9 8 2 16 26 18 30 13 30 -39z"/>
<path d="M1111 1168 c-10 -29 -3 -58 15 -58 19 0 28 24 20 55 -8 31 -24 32
-35 3z"/>
<path d="M764 996 c-9 -25 0 -61 16 -61 10 0 16 12 18 38 2 28 0 37 -13 37 -8
0 -18 -6 -21 -14z"/>
<path d="M935 990 c-8 -26 3 -60 20 -60 15 0 28 41 19 64 -9 22 -31 20 -39 -4z"/>
<path d="M772 828 c-16 -16 -15 -53 1 -67 19 -15 27 -4 27 35 0 37 -11 49 -28
32z"/>
<path d="M942 828 c-16 -16 -15 -53 2 -67 12 -10 17 -8 25 8 14 25 14 33 -2
54 -10 14 -15 15 -25 5z"/>
<path d="M424 1177 c-9 -25 0 -62 16 -62 10 0 15 10 15 34 0 36 -21 54 -31 28z"/>
<path d="M1470 819 c-17 -30 3 -77 25 -59 19 16 19 54 1 69 -12 10 -17 8 -26
-10z"/>
<path d="M424 467 c-9 -25 0 -62 16 -62 10 0 15 10 15 34 0 36 -21 54 -31 28z"/>
<path d="M934 454 c-4 -17 -1 -31 9 -41 13 -14 16 -13 27 6 13 26 5 61 -15 61
-8 0 -18 -12 -21 -26z"/>
<path d="M1108 462 c-6 -22 8 -62 21 -62 13 0 25 45 17 65 -8 21 -33 19 -38
-3z"/>
<path d="M1287 473 c-12 -11 -7 -50 7 -62 12 -10 17 -8 26 9 19 35 -8 79 -33
53z"/>
<path d="M2110 446 l0 -85 85 -3 85 -3 0 88 0 87 -85 0 -85 0 0 -84z m128 2
c3 -37 -17 -68 -43 -68 -45 0 -62 87 -23 114 31 22 62 1 66 -46z"/>
<path d="M2180 446 c0 -38 17 -57 31 -35 14 22 6 63 -13 67 -14 3 -18 -4 -18
-32z"/>
</g>
</svg>
